<svg width="512" height="512" viewBox="0 0 512 512" fill="none" xmlns="http://www.w3.org/2000/svg">
<rect x="99" y="121" width="314" height="188" rx="36" fill="white"/>
<rect x="148" y="186" width="96" height="55" fill="#C0F202"/>
<rect x="268" y="186" width="96" height="55" fill="#C0F202"/>
<path d="M81 307C81 287.118 97.1178 271 117 271H394C413.882 271 430 287.118 430 307V394H81V307Z" fill="white"/>
<path d="M430.205 387.21C406.964 387.21 383.647 387.21 360.405 387.21C312.643 387.21 264.881 387.21 217.12 387.21C177.932 387.21 138.82 387.21 99.6328 387.21C93.6155 387.21 87.5983 387.21 81.581 387.21C83.4614 389.091 85.3418 390.971 87.2222 392.851C87.2222 374.423 87.2222 355.996 87.2222 337.493C87.2222 330.272 87.2222 323.051 87.2222 315.83C87.2222 300.787 92.2617 285.895 101.588 274.086C111.818 261.224 126.259 252.8 142.28 249.641C147.846 248.588 153.562 248.588 159.204 248.588C175.676 248.588 192.223 248.588 208.695 248.588C253.223 248.588 297.751 248.588 342.354 248.588C347.017 248.588 351.68 248.588 356.419 248.588C367.4 248.588 378.081 250.844 387.934 255.808C402.15 263.029 413.658 275.44 419.675 290.182C423.662 300.035 424.639 310.114 424.639 320.644C424.639 344.638 424.639 368.707 424.639 392.701C424.639 399.997 435.922 399.997 435.922 392.701C435.922 374.273 435.922 355.845 435.922 337.342C435.922 330.121 435.922 322.901 435.922 315.68C435.922 299.81 431.108 284.089 422.082 271.077C406.813 248.964 381.842 237.23 355.291 237.23C340.548 237.23 325.806 237.23 311.064 237.23C265.709 237.23 220.279 237.23 174.924 237.23C161.084 237.23 147.019 236.403 133.555 240.013C99.7832 249.039 76.3159 280.93 76.0903 315.53C75.9399 341.253 76.0903 366.977 76.0903 392.626C76.0903 395.709 78.6476 398.267 81.7315 398.267C104.973 398.267 128.29 398.267 151.532 398.267C199.293 398.267 247.055 398.267 294.817 398.267C334.005 398.267 373.117 398.267 412.304 398.267C418.321 398.267 424.339 398.267 430.356 398.267C437.501 398.492 437.501 387.21 430.205 387.21Z" fill="#0074FF"/>
<path d="M83.0077 345.992C106.249 340.652 130.243 332.604 154.312 336.515C168.227 338.772 181.315 343.209 195.681 343.661C209.896 344.037 223.36 340.351 237.125 337.343C248.482 334.785 260.517 334.785 272.025 336.816C277.365 337.719 282.63 339.148 287.895 340.351C305.27 344.338 322.269 344.488 339.719 340.502C344.758 339.373 349.722 338.095 354.762 337.042C366.195 334.71 378.229 334.86 389.662 337.042C399.214 338.847 408.616 341.404 418.093 343.51C421.704 344.338 425.239 345.165 428.849 345.992C435.919 347.647 438.928 336.741 431.858 335.086C408.466 329.671 384.547 321.923 360.253 324.782C346.338 326.436 333.1 331.401 319.034 332.228C304.819 333.055 291.505 329.445 277.816 326.436C266.308 323.879 254.349 323.503 242.615 325.007C236.222 325.835 229.979 327.414 223.661 328.843C216.29 330.573 208.994 332.002 201.397 332.303C192.522 332.679 183.872 331.551 175.222 329.52C158.449 325.684 142.202 322.6 124.903 325.158C114.373 326.662 103.993 329.595 93.6884 331.927C89.1754 332.98 84.6625 334.033 80.1496 335.011C72.9289 336.816 75.9375 347.647 83.0077 345.992Z" fill="#0074FF"/>
<path d="M99.9214 274.613C99.9214 239.788 99.9214 204.888 99.9214 170.064C99.9214 141.632 127.751 124.408 153.776 124.408C165.81 124.408 177.845 124.408 189.879 124.408C235.911 124.408 282.018 124.408 328.05 124.408C338.505 124.408 348.96 124.332 359.415 124.408C375.812 124.558 393.037 131.628 403.191 144.866C409.434 152.99 411.765 162.241 411.765 172.32C411.765 206.393 411.765 240.541 411.765 274.613C411.765 281.909 423.048 281.909 423.048 274.613C423.048 239.788 423.048 204.888 423.048 170.064C423.048 136.367 391.908 114.404 360.544 113.201C349.938 112.749 339.258 113.201 328.652 113.201C282.62 113.201 236.513 113.201 190.481 113.201C178.296 113.201 166.036 113.201 153.851 113.201C122.712 113.201 91.2716 133.584 88.7143 166.528C88.263 171.944 88.6391 177.51 88.6391 182.925C88.6391 193.982 88.6391 205.039 88.6391 216.096C88.6391 235.276 88.6391 254.38 88.6391 273.56C88.6391 273.936 88.6391 274.312 88.6391 274.689C88.6391 281.909 99.9214 281.909 99.9214 274.613Z" fill="#0074FF"/>
<path d="M236.205 237.457C218.002 237.457 199.8 237.457 181.598 237.457C173.324 237.457 165.051 237.457 156.777 237.457C154.22 237.457 152.189 236.404 152.189 233.546C152.189 229.559 152.189 225.498 152.189 221.511C152.189 212.26 152.189 202.933 152.189 193.681C152.189 190.372 155.197 190.146 157.68 190.146C161.139 190.146 164.675 190.146 168.135 190.146C189.571 190.146 211.007 190.146 232.444 190.146C235.302 190.146 239.439 189.545 239.665 193.681C239.89 197.818 239.665 202.03 239.665 206.167C239.665 213.237 239.665 220.233 239.665 227.303C239.665 230.387 241.018 237.156 236.205 237.457C228.984 237.833 228.909 249.115 236.205 248.739C244.478 248.288 251.022 242.12 251.022 233.696C251.022 229.86 251.022 226.024 251.022 222.188C251.022 212.711 251.022 203.234 251.022 193.681C251.022 185.633 244.328 178.789 236.205 178.789C234.174 178.789 232.218 178.789 230.187 178.789C219.657 178.789 209.127 178.789 198.597 178.789C187.39 178.789 176.183 178.789 164.975 178.789C156.025 178.789 146.021 178.037 141.959 188.266C140.53 191.876 140.982 195.938 140.982 199.699C140.982 205.49 140.982 211.282 140.982 217.073C140.982 222.038 140.982 226.927 140.982 231.891C140.982 238.059 142.937 243.173 148.278 246.708C152.866 249.717 160.237 248.739 165.502 248.739C174.753 248.739 184.08 248.739 193.332 248.739C207.623 248.739 221.914 248.739 236.205 248.739C243.501 248.739 243.501 237.457 236.205 237.457Z" fill="#0074FF"/>
<path d="M355.955 237.457C337.752 237.457 319.55 237.457 301.348 237.457C293.074 237.457 284.801 237.457 276.527 237.457C273.97 237.457 271.939 236.404 271.939 233.546C271.939 229.559 271.939 225.498 271.939 221.511C271.939 212.26 271.939 202.933 271.939 193.681C271.939 190.372 274.947 190.146 277.43 190.146C280.889 190.146 284.425 190.146 287.885 190.146C309.321 190.146 330.757 190.146 352.194 190.146C355.052 190.146 359.189 189.545 359.415 193.681C359.64 197.818 359.415 202.03 359.415 206.167C359.415 213.237 359.415 220.233 359.415 227.303C359.49 230.387 360.768 237.156 355.955 237.457C348.734 237.833 348.659 249.115 355.955 248.739C364.228 248.288 370.772 242.12 370.772 233.696C370.772 229.86 370.772 226.024 370.772 222.188C370.772 212.711 370.772 203.234 370.772 193.681C370.772 185.633 364.078 178.789 355.955 178.789C353.924 178.789 351.968 178.789 349.937 178.789C339.407 178.789 328.877 178.789 318.347 178.789C307.14 178.789 295.933 178.789 284.725 178.789C275.775 178.789 265.771 178.037 261.709 188.266C260.28 191.876 260.732 195.938 260.732 199.699C260.732 205.49 260.732 211.282 260.732 217.073C260.732 222.038 260.732 226.927 260.732 231.891C260.732 238.059 262.687 243.173 268.028 246.708C272.616 249.717 279.987 248.739 285.252 248.739C294.504 248.739 303.83 248.739 313.082 248.739C327.373 248.739 341.664 248.739 355.955 248.739C363.251 248.739 363.251 237.457 355.955 237.457Z" fill="#0074FF"/>
</svg>
