<svg width="257" height="260" viewBox="0 0 257 260" fill="none" xmlns="http://www.w3.org/2000/svg">
<path d="M18.056 7H99.711C105.794 7 110.767 11.956 110.767 18.122V100.084C110.767 106.249 105.794 111.206 99.711 111.206H18.056C11.973 111.206 7 106.249 7 100.084V18.122C7 11.956 11.973 7 18.056 7ZM157.686 7H239.341C245.424 7 250.397 11.956 250.397 18.122V100.084C250.397 106.249 245.424 111.206 239.341 111.206H157.686C151.603 111.206 146.63 106.249 146.63 100.084V18.122C146.63 11.956 151.603 7 157.686 7ZM18.056 148.794H99.711C105.794 148.794 110.767 153.751 110.767 159.916V241.878C110.767 248.043 105.794 253 99.711 253H18.056C11.973 253 7 248.043 7 241.878V159.916C7 153.751 11.973 148.794 18.056 148.794Z" fill="white" stroke="#0074FF" stroke-width="13"/>
<path d="M157.696 148.794H239.351C245.434 148.794 250.407 153.75 250.407 159.916V241.878C250.407 248.043 245.434 253 239.351 253H157.696C151.613 253 146.641 248.043 146.641 241.878V159.916C146.641 153.75 151.613 148.794 157.696 148.794Z" fill="white" stroke="#BDF202" stroke-width="13"/>
</svg>
