<svg width="512" height="512" viewBox="0 0 512 512" fill="none" xmlns="http://www.w3.org/2000/svg">
<path d="M165.438 265.613V150.291L171.27 140.681L182.102 138.174H222.93H328.332L340.414 143.188L345.83 160.737V265.613L256.259 292.354L165.438 265.613Z" fill="white" stroke="#0074FF"/>
<path d="M211.688 61.8545H222.56H294.905L300.341 67.044V74.8282L289.469 79.5852H215.869L211.688 71.3686V61.8545Z" fill="#BDF202" stroke="#0074FF"/>
<path d="M245.227 188.727V284.899L258.549 291.143L265.21 284.899V188.727H245.227Z" fill="#BDF202"/>
<path d="M213.998 188.727V277.821L192.766 274.075L194.847 188.727H213.998Z" fill="#BDF202"/>
<path d="M296.438 188.727V277.821L316.421 272.409L317.67 188.727H296.438Z" fill="#BDF202"/>
<path d="M313.09 159.167L305.18 137.518H335.156L344.314 149.591V172.073H338.902L326.412 168.327L313.09 159.167Z" fill="#BDF202"/>
<path d="M201.101 152.923L204.849 137.518H188.611L175.289 138.767L165.297 149.591V172.073H174.04L188.611 166.245L201.101 152.923Z" fill="#BDF202"/>
<path d="M254.805 290.728V448.516L381.785 402.72V316.956L410.928 307.797L379.287 256.172L345.149 243.266V266.58L254.805 290.728Z" fill="white"/>
<path d="M254.807 448.516V290.728L164.048 266.58V243.266L127.411 256.172L97.8516 307.797L127.411 316.956V402.72L254.807 448.516Z" fill="white"/>
<path d="M254.807 290.728V448.516M254.807 290.728L164.048 266.58V243.266L127.411 256.172L97.8516 307.797L127.411 316.956V402.72L254.807 448.516M254.807 290.728L345.151 266.58V243.266L379.29 256.172L410.931 307.797L381.788 316.956V402.72L254.807 448.516" stroke="black"/>
<path fill-rule="evenodd" clip-rule="evenodd" d="M97.1852 312.25C95.8466 311.827 94.7825 310.809 94.2906 309.493C93.7986 308.189 93.9359 306.713 94.6681 305.523L125.48 254.895C125.571 254.689 125.663 254.495 125.777 254.312C125.816 254.247 125.848 254.181 125.881 254.116C125.933 254.011 125.985 253.907 126.063 253.808C126.566 253.19 127.253 252.778 127.996 252.493C128.014 252.487 128.028 252.478 128.042 252.47C128.056 252.461 128.071 252.453 128.088 252.447C128.138 252.43 128.173 252.395 128.209 252.361C128.248 252.324 128.286 252.287 128.34 252.275L162.382 243.01V252.503L147.15 256.645L255.521 285.855L363.71 256.703L348.116 252.46V242.942L382.347 252.252C382.368 252.262 382.383 252.277 382.398 252.291C382.418 252.309 382.437 252.326 382.462 252.333C382.502 252.344 382.539 252.358 382.576 252.372L382.58 252.374C382.616 252.388 382.652 252.401 382.691 252.412C382.742 252.429 382.792 252.444 382.842 252.46C382.958 252.494 383.071 252.527 383.182 252.584C383.938 252.939 384.578 253.465 385.059 254.174C385.076 254.203 385.105 254.22 385.133 254.237C385.148 254.247 385.163 254.255 385.177 254.266C385.189 254.275 385.2 254.286 385.207 254.3L416.385 305.512C417.118 306.713 417.255 308.189 416.763 309.493C416.271 310.809 415.206 311.827 413.868 312.25L385.78 321.209L384.956 403.724C384.945 405.645 383.732 407.339 381.924 407.991L257.099 452.737C256.596 452.91 256.07 453.001 255.555 453.001C255.521 453.001 255.486 452.983 255.452 452.966L255.441 452.961L255.427 452.954C255.401 452.942 255.375 452.932 255.349 452.932C255.334 452.935 255.318 452.94 255.302 452.946C255.287 452.952 255.273 452.959 255.257 452.965C255.23 452.978 255.202 452.992 255.174 452.998C255.163 452.999 255.153 453.001 255.143 453.001C254.629 453.001 254.102 452.921 253.611 452.737L127.539 407.991C125.697 407.339 124.484 405.599 124.496 403.643L125.091 321.152L97.1852 312.25ZM250.567 441.96L133.671 400.463L134.22 324.08L219.001 351.127C219.458 351.277 219.927 351.356 220.396 351.356C221.964 351.356 223.463 350.555 224.309 349.16L250.75 305.717L250.567 441.96ZM375.826 400.463L260.12 441.937L259.937 305.123L286.733 349.137C287.58 350.532 289.078 351.333 290.646 351.333C291.114 351.333 291.584 351.254 292.042 351.105L376.592 324.138L375.826 400.463ZM405.539 305.306L292.682 341.3L263.541 293.418L379.178 262L405.539 305.306ZM131.829 262.058L228.13 288.246L247.455 293.509L218.36 341.311L105.503 305.306L131.829 262.058Z" fill="#0074FF"/>
<path fill-rule="evenodd" clip-rule="evenodd" d="M162.387 260.917L168.678 262.655V174.84C189.394 175.472 205.804 159.713 207.414 140.327H303.033C304.621 159.602 320.941 175.469 341.782 174.84V262.46L347.837 260.773L348.065 260.71V154.55V154.547C348.065 143.44 338.993 134.037 327.551 134.037H306.016C306.006 134.037 305.998 134.043 305.987 134.043H290.111V81.9307H292.109C298.705 81.9307 304.074 76.5617 304.074 69.9654C304.074 63.369 298.705 58 292.109 58H218.352C211.755 58 206.386 63.369 206.386 69.9654C206.386 76.5617 211.755 81.9307 218.352 81.9307H220.349V134.043C219.475 134.043 219.721 134.043 220.014 134.043C221.003 134.043 222.516 134.043 182.897 134.037C171.584 134.037 162.383 143.238 162.383 154.55C162.383 156.801 162.383 157.958 162.384 159.765C162.386 165.712 162.39 178.703 162.387 260.917ZM341.782 154.55C341.782 146.673 335.369 140.326 327.561 140.326H309.315C310.943 156.681 325.085 169.25 341.782 168.609V154.55ZM212.668 69.9654C212.668 73.0982 215.218 75.6478 218.351 75.6478H292.108C295.241 75.6478 297.791 73.0982 297.791 69.9654C297.791 66.8326 295.241 64.283 292.108 64.283H218.351C215.218 64.283 212.668 66.8326 212.668 69.9654ZM283.828 134.043V81.9307H226.632V134.043H283.828ZM182.899 140.326C175.057 140.326 168.678 146.705 168.678 154.547V168.609C185.417 169.243 199.521 156.631 201.135 140.326H182.899Z" fill="#0074FF"/>
<path d="M268.694 189.165C268.694 187.429 267.289 186.023 265.553 186.023H244.891C243.155 186.023 241.75 187.428 241.75 189.165V282.843L248.034 284.579V192.307H262.41V284.562L268.694 282.813V189.165Z" fill="#0074FF"/>
<path d="M319.483 189.165C319.483 187.429 318.078 186.023 316.342 186.023H295.68C293.944 186.023 292.539 187.428 292.539 189.165V276.172L298.822 274.422V192.307H313.199V270.418L319.483 268.668V189.165Z" fill="#0074FF"/>
<path d="M217.897 189.165C217.897 187.429 216.493 186.023 214.756 186.023H194.094C192.359 186.023 190.953 187.428 190.953 189.165V268.811L197.236 270.546V192.307H211.613V274.518L217.897 276.254V189.165Z" fill="#0074FF"/>
</svg>
