<svg width="20" height="13" viewBox="0 0 20 13" fill="none" xmlns="http://www.w3.org/2000/svg">
<path d="M17.1182 2.09892L12.5987 3.29309C12.517 3.31478 12.4298 3.30337 12.3569 3.26086L7.96514 0.722778L6.72893 1.04549L9.29812 3.66787C9.37872 3.74921 9.40973 3.86695 9.37966 3.97745C9.3497 4.08751 9.2631 4.17373 9.1527 4.20272L3.23618 5.76812C3.1062 5.80288 2.96849 5.75192 2.89173 5.64138L0.794357 2.62315L0.360352 2.72922L1.63851 7.61819C1.73188 7.97452 2.08927 8.19025 2.45257 8.11022L19.7454 4.17076C19.8424 4.14429 19.9126 4.09161 19.956 4.01702C19.9995 3.94199 20.0113 3.85424 19.9891 3.77025C19.8291 3.16296 19.4414 2.65394 18.898 2.33825C18.3553 2.02294 17.7234 1.93798 17.1182 2.09892Z" fill="#0074FF"/>
<path d="M0.718977 11.9571C0.718977 12.1338 0.862368 12.2772 1.03905 12.2772H18.3228C18.4995 12.2772 18.6429 12.1338 18.6429 11.9571C18.6429 11.7805 18.4995 11.6371 18.3228 11.6371H1.03905C0.862368 11.6371 0.718977 11.7805 0.718977 11.9571Z" fill="#0074FF"/>
</svg>
