<svg width="512" height="512" viewBox="0 0 512 512" fill="none" xmlns="http://www.w3.org/2000/svg">
<path d="M239.225 416.947H239.224H208.417L248.056 299.638L250.733 291.717H242.372H172.198H168.961L167.184 294.422L152.075 317.416C148.822 322.351 144.391 326.402 139.181 329.203C133.971 332.004 128.145 333.467 122.227 333.46H122.221H97.8166L125.499 258.041L126.261 255.966L125.494 253.893L97.6153 178.487L122.054 178.487L122.061 178.487C127.968 178.479 133.785 179.937 138.988 182.729C144.19 185.521 148.617 189.56 151.871 194.482L151.875 194.489L151.879 194.495L167.201 217.551L168.981 220.23H172.198H242.414H250.777L248.098 212.308L208.419 95L239.224 95L239.225 95C245.656 94.9988 251.968 96.7282 257.497 100.006C263.026 103.284 267.569 107.988 270.648 113.625L270.66 113.647L270.673 113.67L328.367 217.152L330.083 220.23H333.607H379.643H379.68L379.718 220.23C388.386 220.121 396.817 223.059 403.535 228.53C410.235 233.986 414.807 241.613 416.458 250.085C417.312 255.19 417.046 260.42 415.677 265.412C414.302 270.427 411.849 275.082 408.487 279.052C405.126 283.023 400.937 286.214 396.213 288.401C391.489 290.589 386.344 291.72 381.137 291.717H381.133H333.607H330.083L328.367 294.795L270.617 398.375L270.608 398.39L270.6 398.406C267.514 404.02 262.974 408.703 257.455 411.965C251.935 415.227 245.639 416.948 239.225 416.947Z" fill="white" stroke="#0074FF" stroke-width="12"/>
<rect x="187.773" y="241.864" width="23.5174" height="23.5174" rx="8" fill="#BDF202"/>
<rect x="225.406" y="241.864" width="23.5174" height="23.5174" rx="8" fill="#BDF202"/>
<rect x="263.031" y="241.864" width="23.5174" height="23.5174" rx="8" fill="#BDF202"/>
<rect x="300.648" y="241.864" width="23.5174" height="23.5174" rx="8" fill="#BDF202"/>
</svg>
