<svg width="17" height="15" viewBox="0 0 17 15" fill="none" xmlns="http://www.w3.org/2000/svg">
<path d="M15.3553 8.25498L11.0768 7.08695C10.9994 7.0659 10.9333 7.01496 10.8935 6.9451L8.48985 2.75741L7.32143 2.43467L8.18811 5.82344C8.21573 5.92899 8.18538 6.04094 8.10827 6.11782C8.03147 6.19438 7.91945 6.22428 7.81503 6.1956L2.21303 4.66823C2.08978 4.63498 2.00083 4.5273 1.99021 4.39948L1.69879 0.908825L1.29201 0.789551L0.023407 5.4339C-0.0688769 5.7725 0.122369 6.12087 0.45872 6.22794L16.5307 11.217C16.623 11.2414 16.7055 11.2313 16.7766 11.1905C16.8479 11.1493 16.8992 11.0825 16.9208 11.0025V11.0016C17.0774 10.4242 17.0003 9.82018 16.7037 9.30068C16.4074 8.7818 15.9284 8.41025 15.355 8.25467L15.3553 8.25498Z" fill="#0074FF"/>
<path d="M0.000244141 13.9054C0.000244141 14.0738 0.136242 14.2105 0.30381 14.2105H16.6964C16.8639 14.2105 16.9999 14.0738 16.9999 13.9054C16.9999 13.737 16.8639 13.6004 16.6964 13.6004H0.30381C0.136242 13.6004 0.000244141 13.737 0.000244141 13.9054Z" fill="#0074FF"/>
</svg>
