<svg width="356" height="130" viewBox="0 0 356 130" fill="none" xmlns="http://www.w3.org/2000/svg">
<path d="M113.572 99.539H91.376V128H68.822V99.539H0.0860003V83.429L61.841 2.69999H86.722L28.547 79.849H69.538V54.61H91.376V79.849H113.572V99.539ZM175.633 129.79C165.609 129.79 156.659 127.284 148.783 122.272C140.907 117.141 134.702 109.742 130.167 100.076C125.633 90.2907 123.365 78.7153 123.365 65.35C123.365 51.9847 125.633 40.469 130.167 30.803C134.702 21.0177 140.907 13.619 148.783 8.60699C156.659 3.47566 165.609 0.909993 175.633 0.909993C185.657 0.909993 194.607 3.47566 202.483 8.60699C210.479 13.619 216.744 21.0177 221.278 30.803C225.813 40.469 228.08 51.9847 228.08 65.35C228.08 78.7153 225.813 90.2907 221.278 100.076C216.744 109.742 210.479 117.141 202.483 122.272C194.607 127.284 185.657 129.79 175.633 129.79ZM175.633 109.563C184.583 109.563 191.624 105.864 196.755 98.465C202.006 91.0663 204.631 80.028 204.631 65.35C204.631 50.672 202.006 39.6337 196.755 32.235C191.624 24.8363 184.583 21.137 175.633 21.137C166.803 21.137 159.762 24.8363 154.511 32.235C149.38 39.6337 146.814 50.672 146.814 65.35C146.814 80.028 149.38 91.0663 154.511 98.465C159.762 105.864 166.803 109.563 175.633 109.563ZM355.502 99.539H333.306V128H310.752V99.539H242.016V83.429L303.771 2.69999H328.652L270.477 79.849H311.468V54.61H333.306V79.849H355.502V99.539Z" fill="#0073FF"/>
</svg>
