<svg width="622" height="435" viewBox="0 0 622 435" fill="none" xmlns="http://www.w3.org/2000/svg">
<path d="M621.054 218.814C621.154 287.314 620.854 287.714 550.654 306.014C489.154 322.114 429.154 310.614 369.554 295.614C306.554 279.814 244.254 261.414 180.654 248.414C126.554 237.414 72.754 244.114 22.854 269.714C5.85404 278.414 0.0540416 272.514 0.154042 255.414C0.454042 227.114 0.754035 198.814 0.0540355 170.514C-0.345965 156.014 6.35404 148.814 19.054 142.514C83.554 110.714 150.554 110.014 218.654 126.614C279.454 141.514 339.354 159.414 400.154 174.314C467.954 190.914 535.254 192.414 599.454 159.414C615.054 151.414 621.254 156.814 621.054 172.814C620.854 188.214 621.054 203.514 621.054 218.814Z" fill="white"/>
<path d="M620.954 66.4137C621.054 122.014 615.054 127.614 556.554 142.514C488.154 159.814 422.154 142.814 357.354 129.414C303.554 118.314 311.354 124.514 310.854 71.2137C310.654 54.5137 311.354 37.7137 310.654 21.0137C309.854 2.41374 316.054 -3.58626 336.954 2.01374C370.454 11.0137 404.354 18.7137 438.654 24.4137C490.554 33.0137 543.354 24.1137 597.054 5.11371C613.754 -2.58629 621.854 -0.68627 621.054 18.4137" fill="white"/>
<path d="M0.153966 364.814C0.053966 306.314 6.05396 300.414 64.554 284.814C132.954 266.514 198.954 284.514 263.754 298.614C317.554 310.314 309.754 303.814 310.254 359.814C310.454 377.414 309.754 395.014 310.454 412.614C311.254 432.214 305.054 438.514 284.154 432.614C250.654 423.214 216.754 415.014 182.454 409.014C130.554 399.914 77.754 409.314 24.054 429.314C7.35396 437.414 -0.74604 435.414 0.0539599 415.314" fill="white"/>
</svg>
