<?xml version="1.0" encoding="utf-8"?>
<!-- Generator: Adobe Illustrator 28.3.0, SVG Export Plug-In . SVG Version: 6.00 Build 0)  -->
<svg version="1.1" id="Слой_1" xmlns="http://www.w3.org/2000/svg" xmlns:xlink="http://www.w3.org/1999/xlink" x="0px" y="0px"
	 viewBox="0 0 796.3 364" style="enable-background:new 0 0 796.3 364;" xml:space="preserve">
<style type="text/css">
	.st0{clip-path:url(#SVGID_00000044147761039835919010000006810507287468710804_);}
	.st1{fill:#0074FF;}
	.st2{stroke:#000000;stroke-miterlimit:10;}
	.st3{fill:none;stroke:#000000;stroke-width:2;stroke-miterlimit:10;}
	.st4{fill:#B3B2B5;}
	.st5{fill:#E3E2E9;}
	.st6{fill:#4825FE;}
	.st7{fill:#3517D6;}
	.st8{fill:#210C93;}
	.st9{fill:#FEFEFE;}
</style>
<g>
	<g>
		<defs>
			<rect id="SVGID_1_" x="48.2" y="61.9" width="747" height="302"/>
		</defs>
		<clipPath id="SVGID_00000129164756821931757420000014149073300313331362_">
			<use xlink:href="#SVGID_1_"  style="overflow:visible;"/>
		</clipPath>
		<g style="clip-path:url(#SVGID_00000129164756821931757420000014149073300313331362_);">
			<path d="M98.9,61.8h24.3l50.9,140h-22l-9.7-26.6H79.7l-9.6,26.6H48L98.9,61.8z M87.4,154.4h47.3l-23.7-65L87.4,154.4z"/>
			<path d="M224.2,201.7c-6.2-0.3-12.2-1.3-18.1-3c-5.9-1.7-11-4-15.5-7c-4.4-2.9-7.7-6.4-9.9-10.4l20.8-7.2c1,1.7,2.8,3.4,5.4,5
				c2.5,1.6,5.5,3,9,4s7.1,1.6,10.8,1.6s7.1-0.4,10.3-1.3c3.2-0.9,5.8-2.2,7.8-3.9c2-1.8,3.1-3.9,3.1-6.4c0-2.8-1.2-4.9-3.5-6.5
				c-2.3-1.5-5.2-2.7-8.6-3.6c-3.5-0.8-6.9-1.6-10.4-2.4c-7.7-1.4-14.7-3.3-21.1-5.7c-6.4-2.4-11.5-5.6-15.2-9.4
				c-3.8-3.8-5.6-8.5-5.6-14.1c0-6.1,2-11.3,6.1-15.8c4.1-4.5,9.4-7.9,16.1-10.3c6.6-2.4,13.7-3.6,21.2-3.6c9.4,0,18,1.6,25.9,4.8
				c7.8,3.2,13.8,7.7,18,13.3l-19.4,9.3c-1.2-1.9-2.9-3.6-5.3-5.1c-2.4-1.5-5-2.7-8-3.7c-3-0.9-6.1-1.4-9.3-1.6
				c-4-0.1-7.7,0.2-11.1,1.1c-3.4,0.9-6.1,2.2-8.2,4c-2,1.8-3.1,4.2-3.1,7c0,2.8,1.2,4.9,3.6,6.2c2.4,1.4,5.5,2.5,9.2,3.3
				s7.5,1.7,11.5,2.8c7,1.8,13.5,3.9,19.6,6.5c6.1,2.6,11.1,5.7,14.8,9.4c3.8,3.7,5.6,8.3,5.4,13.7c0,5.9-2.2,11.2-6.6,15.7
				s-10.2,7.9-17.2,10.2C239.6,201.1,232.1,202.1,224.2,201.7z"/>
			<path d="M305.5,101.8h-20.8v100h20.8V101.8z"/>
			<path d="M295.2,65.5c-3.1,0-5.8,1-7.9,3.1s-3.2,4.7-3.2,7.8c0,3.1,1.1,5.7,3.2,7.8s4.8,3.1,8,3.1c3.1,0,5.6-1,7.8-3.1
				c2.1-2.1,3.1-4.7,3.1-7.8c0-3.1-1.1-5.6-3.2-7.8C300.9,66.6,298.3,65.5,295.2,65.5z"/>
			<path d="M561.1,101.8h-20.7h-0.1v55.9c0,4.4-1.1,8.3-3.2,11.9c-2.2,3.6-5.1,6.4-8.7,8.5c-3.6,2.1-7.7,3.2-12.1,3.2
				c-4.4,0-8.4-1.1-12.1-3.2s-6.6-5-8.8-8.5c-2.2-3.6-3.3-7.5-3.3-11.9v-55.9h-20.9v60.9c0,7.2,1.8,13.8,5.4,19.7
				c3.6,5.9,8.4,10.6,14.5,14.1s12.8,5.3,20.2,5.3c5.8,0,11.2-1.2,16.3-3.5c5.1-2.3,9.3-5.5,12.7-9.6l0.1,10.5v2.5h20.8L561.1,101.8
				L561.1,101.8L561.1,101.8z"/>
			<path d="M400.9,101.8v2.7v14.3c-3.6-4.8-7.5-9.2-13-12.3c-5.6-3.1-12-4.7-19.2-4.7c-7.1,0-13.8,1.3-20.1,3.8
				c-6.2,2.6-11.7,6.1-16.4,10.6s-8.4,9.7-11.1,15.7c-2.7,6-4,12.4-4,19.1c0,7,1.4,13.6,4.1,19.7c2.7,6.1,6.5,11.5,11.4,16.2
				s10.6,8.3,17.1,11c6.5,2.6,13.4,3.9,20.7,3.9c6.8,0,12.7-1.5,17.7-4.5c4.9-2.9,9.8-8.1,12.8-12.9v17.4h20.8v-2.5v-94.9v-2.7
				L400.9,101.8L400.9,101.8z M365.7,182.1c-16.6,0-30-13.4-30-30c0-16.6,13.4-30,30-30s30,13.4,30,30
				C395.7,168.7,382.2,182.1,365.7,182.1z"/>
			<path d="M728.3,201.8c-9.2,0-17.6-2.2-25.2-6.7c-7.6-4.5-13.6-10.5-18.1-18.1c-4.5-7.6-6.8-15.9-6.8-25.1c0-7,1.3-13.5,3.9-19.5
				c2.6-6,6.2-11.4,10.8-15.9c4.6-4.6,9.9-8.2,15.9-10.8c6.1-2.6,12.5-3.9,19.4-3.9c7.7,0,14.7,1.5,21.1,4.5
				c6.4,3,11.9,7.1,16.4,12.4c4.5,5.3,7.9,11.4,10,18.2c2.1,6.9,2.8,14.2,1.9,21.9h-77.1c0.9,4.4,2.5,8.3,5,11.8s5.7,6.3,9.6,8.3
				c3.9,2,8.2,3.1,13,3.1c5.1,0,9.7-1.2,13.8-3.6c4.2-2.4,7.6-5.7,10.2-10l21.1,4.6c-4,8.4-10,15.3-18.1,20.6
				C747.4,199.1,738.3,201.8,728.3,201.8z M699.9,143.8h56.8c-0.7-4.6-2.4-8.7-5.1-12.4c-2.7-3.7-6.1-6.6-10.1-8.8
				s-8.5-3.3-13.2-3.3c-4.7,0-9.1,1.1-13.2,3.2c-4,2.2-7.4,5.1-10,8.8C702.5,135,700.8,139.1,699.9,143.8z"/>
			<path d="M436.1,201.8l-0.3-140h20.7l0.1,140H436.1z"/>
			<path d="M627.4,130.9l-21.1-29.1h-30l36.2,49.9L576,201.8h30l21.4-29.6l21.5,29.6h29.9l-36.4-50.1"/>
			<path class="st1" d="M648.4,143.4l30.1-41.6h-29.9l-15.2,20.9L648.4,143.4z"/>
			<path d="M285.4,264v2.7V281c-3.6-4.8-7.5-9.2-13-12.3c-5.6-3.1-12-4.7-19.2-4.7c-7.1,0-13.8,1.3-20.1,3.8
				c-6.2,2.6-11.7,6.1-16.4,10.6s-8.4,9.7-11.1,15.7c-2.7,6-4,12.4-4,19.1c0,7,1.4,13.6,4.1,19.7s6.5,11.5,11.4,16.2
				c4.9,4.7,10.6,8.3,17.1,11c6.5,2.6,13.4,3.9,20.7,3.9c6.8,0,12.7-1.5,17.7-4.5c4.9-2.9,9.8-8.1,12.8-12.9V364h20.8v-2.5v-94.9
				v-2.7h-20.8V264z M250.2,344.3c-16.6,0-30-13.4-30-30c0-16.6,13.4-30,30-30s30,13.4,30,30C280.2,330.9,266.7,344.3,250.2,344.3z"
				/>
			<path d="M153.4,364V264h20.8v10.6c3.5-4.1,7.7-7.4,12.8-9.8c5.1-2.4,10.5-3.6,16.4-3.6c3.7,0,7.4,0.5,11.1,1.5l-8.3,21
				c-2.6-1-5.2-1.5-7.8-1.5c-4.4,0-8.4,1.1-12.1,3.2c-3.7,2.2-6.6,5.1-8.8,8.8c-2.2,3.7-3.3,7.7-3.3,12.2V364H153.4z"/>
			<path d="M385.3,364h-26.7l-36.5-100.2h22.2l27.6,76.2l27.7-76.2h22.1L385.3,364z"/>
			<path d="M477.3,364c-9.2,0-17.6-2.4-25.2-7.1s-13.6-11.1-18.1-19c-4.5-8-6.8-16.8-6.8-26.5c0-7.3,1.3-14.2,3.9-20.5
				c2.6-6.4,6.2-12,10.8-16.8c4.6-4.8,9.9-8.6,15.9-11.4c6.1-2.7,12.5-4.1,19.4-4.1c7.7,0,14.7,1.6,21.1,4.8
				c6.4,3.2,11.9,7.5,16.4,13.1c4.5,5.6,7.9,12,10,19.2c2.1,7.2,2.8,14.9,1.9,23h-77.1c0.9,4.6,2.5,8.8,5,12.5
				c2.5,3.7,5.7,6.6,9.6,8.8c3.9,2.1,8.2,3.2,13,3.3c5.1,0,9.7-1.3,13.8-3.8c4.2-2.5,7.6-6,10.2-10.5l21.1,4.9
				c-4,8.9-10,16.1-18.1,21.8C496.4,361.2,487.3,364,477.3,364z M448.9,302.8h56.8c-0.7-4.8-2.4-9.1-5.1-13c-2.7-3.9-6.1-7-10.1-9.3
				s-8.5-3.4-13.2-3.4c-4.7,0-9.1,1.1-13.2,3.4c-4,2.3-7.4,5.4-10,9.2C451.5,293.5,449.8,297.9,448.9,302.8z"/>
			<path d="M540.7,364l-0.3-140h20.7l0.1,140H540.7z"/>
			<path d="M174.1,223.8H48v21h8.1h44.5V364h20.8V244.8H166h8.1V223.8z"/>
			<path class="st2" d="M786.3,91.6c-1.6,0-3-0.5-4.1-1.6c-1.1-1.1-1.7-2.4-1.7-4.1c0-1.7,0.6-3.1,1.7-4.2c1.1-1.1,2.5-1.6,4.1-1.6
				c1,0,1.9,0.2,2.8,0.7c0.9,0.4,1.5,1,2,1.7l-1.2,1.1c-0.9-1.2-2.1-1.8-3.5-1.8c-1.1,0-2.1,0.4-2.9,1.2c-0.8,0.8-1.2,1.8-1.2,2.9
				c0,1.2,0.4,2.1,1.1,2.9c0.8,0.8,1.7,1.1,2.9,1.1c1.5,0,2.7-0.6,3.6-1.8l1.2,1.1c-0.5,0.7-1.2,1.3-2.1,1.8
				C788.3,91.4,787.4,91.6,786.3,91.6z"/>
			<path class="st3" d="M785.9,95.3c5.2,0,9.4-4.2,9.4-9.4c0-5.2-4.2-9.4-9.4-9.4c-5.2,0-9.4,4.2-9.4,9.4
				C776.5,91.1,780.7,95.3,785.9,95.3z"/>
			<path class="st1" d="M776.2,294c0,22.1-0.1,22.2-22.7,28.1c-19.8,5.2-39.1,1.5-58.3-3.4c-20.3-5.1-40.4-11-60.8-15.2
				c-17.4-3.6-34.7-1.4-50.8,6.9c-5.5,2.8-7.4,0.9-7.3-4.6c0.1-9.1,0.2-18.2,0-27.4c-0.1-4.7,2-7,6.1-9
				c20.8-10.3,42.4-10.5,64.3-5.1c19.6,4.8,38.9,10.6,58.4,15.4c21.8,5.4,43.5,5.8,64.2-4.8c5-2.6,7-0.8,7,4.3
				C776.2,284.2,776.2,289.1,776.2,294z"/>
			<path class="st1" d="M776.2,246c0,17.9-1.9,19.7-20.7,24.5c-22,5.6-43.3,0.1-64.2-4.2c-17.3-3.6-14.8-1.6-15-18.7
				c-0.1-5.4,0.2-10.8-0.1-16.2c-0.2-6,1.7-7.9,8.5-6.1c10.8,2.9,21.7,5.4,32.8,7.2c16.7,2.8,33.7-0.1,51-6.2c5.4-2.5,8-1.9,7.7,4.3
				"/>
			<path class="st1" d="M576.2,340.9c0-18.8,1.9-20.7,20.7-25.8c22-5.9,43.3-0.1,64.2,4.4c17.3,3.8,14.8,1.7,15,19.7
				c0.1,5.7-0.2,11.3,0.1,17c0.2,6.3-1.7,8.3-8.5,6.5c-10.8-3-21.7-5.7-32.8-7.6c-16.7-2.9-33.7,0.1-51,6.5c-5.4,2.6-8,2-7.7-4.5"/>
		</g>
	</g>
	<path class="st4" d="M140.8,72.4c1.6,3.6,3.6,7,4.2,11c0.6,3.9-0.4,6-4.3,7.7c-3.3,1.4-6.8,2.3-10.2,3.4c-5,1.7-10,3-14.8,5.2
		c-1.6,0.7-3,1.6-4.5,2.5c-1.9,1.1-4,1.8-6.1,2.7c-1.3,0.5-2.4,1.5-3.7,1.8c-2.9,0.7-5.3,2.4-7.6,3.9c-3.1,2-6.4,3.7-9.6,5.6
		c-2.3,1.4-4.7,2.9-7.5,3.5c-0.4,0.1-0.7,0.1-1.1,0c-0.3-0.1-0.6-0.2-0.8,0.1c-0.1,0.3,0.1,0.5,0.3,0.8c1.9,2.7,2.2,5.7,1.9,8.8
		c-0.1,1.5-0.5,2.9-1.2,4.2c-0.3,0.5-0.6,1-1.1,1.3c-0.1,0.1-0.2,0.3-0.3,0.3c0,0.1,0,0.1-0.1,0.1c-0.1,0-0.1,0.1-0.1,0.1l0,0.1
		c-0.1,0.1-0.1,0.1-0.1,0.2c-0.1,0.1-0.1,0.2-0.2,0.2l0,0c-0.1,0.1-0.1,0.1-0.2,0.2c0,0-0.1,0.1-0.1,0.1c0,0.1-0.1,0.1-0.1,0.1
		c0,0-0.1,0.1-0.1,0.1c0,0.1,0,0.1-0.1,0.1c0,0-0.1,0.1-0.1,0.1c0,0.1,0,0.1-0.1,0.1c-2.8,2.4-6.1,3.5-9.7,3.3
		c-3.7-0.2-6.6-2-8.4-5.2c-0.2-0.3-0.4-0.6-0.1-0.9c0.5-0.3,0.9-0.2,1.3,0c1,0.6,2,0.6,3.1,0.3c0.7-0.2,1.4-0.2,2.1,0.1
		c2.1,1,3.5,0.1,4.8-1.6c1.7-2.4,2.8-5.1,4-7.7c0.2-0.5,0.2-1,0-1.5c-0.4-0.7-0.2-1.6-0.6-2.3c-0.7-1.1-1.7-2.1-3.2-2.2
		c-0.9-0.1-1.9-0.1-2.8,0.2c-1.4,0.4-2.6-0.1-3.8-0.6c-0.3-0.1-0.7-0.3-0.6-0.8c0-0.1,0.1-0.2,0.1-0.2c0.1-0.1,0.2-0.2,0.3-0.2
		c0.2-0.1,0.3-0.2,0.5-0.2c2.2,1.1,4.6,0.8,6.4-1.5c0.1-0.1,0.3-0.3,0.4-0.3c1.2-0.2,2.2,0.5,3.5,0.9c-0.2-0.8-0.7-1.3-0.8-1.9
		c0-0.2-0.1-0.4-0.1-0.6c0-0.1-0.1-0.2-0.1-0.3c-0.2-0.7-0.9-1.1-1.3-1.6c-0.1-0.1-0.1-0.2-0.1-0.3c-0.2-0.8-0.7-1.4-1.2-2
		c0.4-1.4,0.1-2.7-0.9-3.8c-0.7-0.8-0.6-2-1.1-2.9c-0.9-1.5-0.6-2.8,0.4-4c0.2-0.2,0.3-0.5,0.1-0.8c-0.8-1.6-0.8-1.8,0.5-3.1
		c0.6-0.1,1.1-0.3,0.8-1.1c-0.1-0.2,0-0.4,0.1-0.5c0.8,0.3,1.5,0.1,2.2-0.5c0.4-0.4,1-0.7,1.6-0.8c1.2-0.4,2.5-0.8,3.5-1.7
		c0.7-0.6,1.7-0.8,2.4-1.4c1-0.8,2.3-0.7,3.1-1.5c0.8-0.8,1.8-1.2,2.5-1.9c0.9-0.8,2-1.2,3-1.6c1.6-0.6,2.9-1.5,4.3-2.2
		c0.3-0.1,0.6-0.2,0.9-0.3c0.1,0,0.2-0.1,0.3-0.1c1.1-0.4,2-1.1,3.1-1.5c0.6-0.2,1.1-0.4,1.7-0.1c0,0.7-0.7,0.8-1.1,1
		c-1.2,0.6-2.3,1.3-3.7,1.6c-0.5,0.1-1,0.4-1.4,0.6c-1.6,1.1-3.4,1.6-5,2.6c-1,0.6-2,1.2-2.7,2.1c-0.6,0.7-1.3,1.1-2.1,1.3
		c-2.2,0.5-3.9,1.8-5.6,3.1c-0.2,0.2-0.3,0.4-0.4,0.6c-0.2,0.6-0.5,1.1-1,1.4c-1.3,0.8-2.3,1.8-3.2,3.1c-0.5,0.7-0.9,1.5-1.4,2.2
		c-0.2,0.3-0.3,0.6-0.3,0.9c0,0.4-0.2,0.9,0.2,1.2c0.4,0.2,0.7,0,1.1-0.3c0.6-0.4,0.8-0.1,0.9,0.4c0.1,0.7-0.1,1.3-0.5,1.9
		c-0.7,1.2-0.4,2.7,0.8,3.5c0.4,0.3,0.6,0,0.8-0.3c0.3-0.7,0.7-0.8,1.5-0.6c1.1,0.3,2.2-0.2,3.3-0.6c0.1,0,0.2-0.1,0.2-0.2
		c-0.2-1.1,0.8-1,1.3-1.5c1.1-1.1,2.5-1,3.8-1c0.8,0,1.2-0.8,2-0.9c0.4-0.1,0.9-0.5,1.2,0c0.3,0.4,0,0.8-0.2,1.2
		c-0.2,0.4-0.8,0.7-0.5,1.2c0.3,0.4,0.8-0.1,1.2-0.2c0.6,0,1-0.2,1.5-0.5c0.9-0.4,1.7-0.7,2.7-0.4c0.9,0.2,1.7,0,2.6-0.1
		c0.8-0.1,1.4-0.7,1.9-1.4c0.9-1.2,1.1-1.2,2.5-0.8c0.5,0.2,0.9,0.2,1.1-0.4c0.2-0.6,0.7-0.8,1.3-0.8c1.1,0,1.9-0.5,2.4-1.4
		c0.1-0.1,0.1-0.2,0.2-0.3c1.3-0.4,1.8-1.6,2.5-2.5c0.6-0.7,1.3-1.1,2.2-1c0.5,0.1,1.1-0.2,1.5-0.4c0.4-0.2,0.8-0.4,1.3-0.2
		c0.4,0.1,0.7,0,1-0.3c0.3-0.4,0.5-1,1.2-0.5c0,0,0.1,0,0.1,0.1c0.2-1.4,1.4-0.6,2.1-1c0.8-0.4,1.5-0.9,2.4-1c0.2,0,0.4-0.2,0.6-0.3
		c0.7-0.7,1.4-1.1,2.3-0.2c0.2,0.2,0.5,0.2,0.8,0c0.7-0.3,1.4-0.3,2.1-0.6c-0.7,0.2-1.2,0-1.4-0.6c-0.2-0.5,0.1-0.9,0.4-1.2
		c0.5-0.4,0.8-1.3,1.8-0.7c0.4,0.2,0.9-0.4,1.1-0.6c0.7-0.8,1.6-1.3,2.6-1.7c0-0.4-0.4-0.5-0.7-0.7c-0.6-0.6-0.7-1.2-0.1-1.9
		c0.6-0.7,1.4-1.3,0.8-2.4c-0.2-0.4,0.3-0.7,0.5-1c0.8-1.2,1.6-2.3,3.2-2.7c1.1-0.3,1.9-1.3,2.1-2.5c0.3-1.7,0.8-1.9,2.4-1.4
		c1.8,0.6,2.1,0.5,3.2-1.1c0.4-0.5,0.8-1.3,1.6-1.2c1.1,0.1,1.7,1,2.2,1.8c0.3,0.6,0.5,1.3,0.9,2c0.1,0.2,0.2,0.5,0.1,0.6
		c-0.4,0.5-0.1,0.6,0.3,0.8c0.4,0.2,0.7,0.6,0.6,1.1c-0.3,0.9,0.3,1.4,1,2c-0.7-2-1.7-3.6-2.3-5.4C140.4,73.2,140,72.7,140.8,72.4z"
		/>
	<path class="st5" d="M140.8,72.4c-0.5,1,0.2,1.7,0.6,2.4c0.6,1.5,1.3,2.9,2.1,4.5c-1.1,0-1.3-1.1-2.1-1.2c0-0.1,0-0.3,0.1-0.4
		c0.4-1.4,0.3-1.5-1-1.7c-0.1,0-0.2-0.1-0.5-0.3c1.2-0.3,1-0.9,0.5-1.5c-0.5-0.8-0.6-1.8-1.5-2.5c-1.1-0.9-1.8-0.9-2.4,0.5
		c-0.8,1.6-1.9,2-3.5,1.2c-1.2-0.5-1.7-0.3-1.9,1c-0.2,1.5-1.4,2.8-2.9,3.1c-1.3,0.2-1.7,1.5-2.4,2.3c-0.1,0.1,0,0.5-0.4,0.6
		c-0.2,0-0.4,0.2-0.3,0.4c1.1,1.3,0,1.9-0.7,2.7c-0.6,0.6-0.5,1.3,0.3,1.6c0.5,0.2,0.7,0.7,0.9,1.1c0,0,0,0.1-0.1,0.1
		c-0.9-0.1-1.5,0.3-2.1,0.9c-0.3,0.3-1,0.3-0.1,1.1c-0.8-0.3-1.3-0.5-1.5,0.3c-0.1,0.4-0.5,0.2-0.6-0.1c-0.4-0.7-0.7-0.4-1,0.1
		c-0.1,0.2-0.4,0.4-0.5,0.5c-0.2,0.2-0.5,0.5-0.3,0.8c0.2,0.3,0.4,0.7,0.9,0.6c0.3-0.1,0.5-0.1,0.7,0c0.2,0.1,0.4,0.2,0.3,0.5
		c-0.1,0.3-0.3,0.1-0.5,0.1c-0.7-0.1-1.5,0.2-2.1,0.4c-0.6,0.3-1.1,0.3-1.5-0.2c-0.6-0.8-1.1-0.4-1.5,0.1c-0.8,0.9-2.1,1-3.1,1.6
		c-0.3,0.2-0.9,0.9-1.7,0.2c-0.3-0.3-0.3,0.7-0.5,1.2c-0.4-0.6-0.8-1.1-1.2,0c-0.1,0.4-0.8,0.6-1,0.5c-1.1-0.6-1.7,0.5-2.6,0.5
		c-0.2,0-0.4,0.2-0.6,0.1c-1.3-0.5-1.8,0.7-2.4,1.4c-0.6,0.7-0.5,1.8-1.8,1.7c-0.1,0-0.3,0.2-0.3,0.4c-0.5,1.2-1.5,1.7-2.7,1.7
		c-0.5,0-0.8,0.1-0.9,0.7c-0.1,0.9-0.8,1-1.3,0.6c-1-0.7-1.6-0.3-2.2,0.6c-1.2,2-3.2,1.7-5.1,1.6c-0.5,0-0.9-0.1-1.3,0.1
		c-1.1,0.4-2.2,0.8-3.4,1.2c-0.3,0.1-0.6,0.1-0.8-0.2c-0.2-0.3-0.2-0.5,0-0.8c0.1-0.1,0.3-0.3,0.3-0.4c0.2-0.5,1.1-0.9,0.5-1.4
		c-0.3-0.3-1.2,0.1-1.6,0.5c-1,0.8-2,0.7-3.1,0.5c-0.6-0.2-0.9,0.4-1.3,0.7c-0.3,0.2-0.4,0.5-0.9,0.6c-0.7,0-1.4,0-0.7,1
		c0.3,0.4-0.1,0.4-0.4,0.5c-1.1,0.4-2.3,0.3-3.4,0.9c-0.2,0.1-0.3,0.1-0.4-0.2c-0.5-1-0.8-0.4-1,0.1c-0.2,0.4-0.2,0.8-0.7,0.8
		c-0.5,0-0.6-0.4-0.9-0.7c-0.2-0.3-0.4-0.6-0.7-0.9c-0.6-0.6-0.6-1.4-0.1-2.2c0.9-1.2,0.9-1.3,0.6-2.6c-0.5,0-0.4,0.6-0.8,0.7
		c-1,0.1-1.5-0.3-1.2-1.3c0.3-1.3,0.4-2.7,1.8-3.6c0.4-0.3,0.6-1.1,1-1.6c0.7-0.9,1.7-1.1,2.4-1.8c0.4-0.4,0.7-0.7,0.7-1.3
		c0-0.2,0-0.5,0.3-0.5c1.2-0.4,1.8-1.8,3.2-2.1c0.9-0.2,1.6-1,2.7-1.1c0.8-0.1,1.4-0.8,2-1.4c1.4-1.2,3-2.4,4.8-3
		c0.7-0.2,1.2-0.6,1.8-0.9c1.7-1.2,3.8-1.4,5.6-2.5c0.6-0.3,1.2-0.6,1.8-1c0.1-0.2,0.3-0.2,0.5-0.2c0.1,0,0.2-0.1,0.3-0.1
		c0.1,0,0.2-0.1,0.2-0.1c0.3-0.1,0.6-0.2,0.9-0.4c0.1-0.1,0.2-0.1,0.3-0.1c0.9-0.7,2.1-0.9,3.1-1.3c0.3-0.1,0.7-0.2,0.9-0.4
		c0.9-0.8,1.9-1.1,3-1.5c1.8-0.5,3.5-1.1,5.2-2c0.4-0.2,0.7-0.3,1.1-0.4c0.2,0,0.4,0,0.5-0.1c1.6-1.6,3.9-1.2,5.8-2.1
		c0.7-0.3,1.5-0.4,2.1-0.8c0.6-0.3,1.4-0.1,1.8-0.8c0.1-0.1,0.2-0.1,0.3-0.2c1.8-0.5,3.6-1.2,5.5-1.6c0.3,0,0.5-0.1,0.7-0.3
		c0.1-0.1,0.3-0.1,0.4-0.2c0.7-0.5,1.6-0.6,2.3-1.1c0.4-0.3,0.9-0.1,1.4-0.1c0.6,0.1,1.1,0.1,1.7,0c2.6-0.2,4.7,1,6.3,3
		C139.9,70.3,140.4,71.3,140.8,72.4z"/>
	<path class="st6" d="M59.5,117.5c-0.1,0.1-0.3,0.2-0.4,0.3c-0.2-1.1-0.9-1.9-1.4-2.8c-0.4-0.7-0.7-1.4-0.7-2.3
		c0-1.5-0.5-2.9-1.1-4.3c-0.6-1.2-0.9-2.4-1.1-3.7c-0.1-0.5-0.1-1-0.3-1.5c-1-2.6-1.4-5.4-2.1-8.1c-1-3.7-1.6-7.5-2.8-11.2
		c-0.2-0.5-0.2-1-0.2-1.5c0-3.8,1.1-7.2,3.5-10.3c3.3-4.3,7.1-8.1,11.6-11.2c1.7-1.2,3.5-2.3,5.4-3.1c1.7-0.7,3-1.8,4-3.2
		c0.9-1.1,1.8-2.2,2.7-3.2l0.1,0l0-0.1c0.3-0.4,0.8-0.8,1.2-1l0.1,0l0-0.1c0.1-0.1,0.2-0.1,0.3-0.2c1.2-0.3,2.5-0.5,3.6-1
		c0.4-0.2,0.8-0.3,1.2,0c0.1,0.1,0.3,0.1,0.4,0c1-0.9,2-0.3,3.1-0.2c1.1,0.1,2.1,0.2,3.2,0.2c1,0.1,2,0.6,3.1,0.8
		c0.7,0.1,1.4,0.5,2.2,0.3c4,0.9,7.9,1.7,11.8,2.9c1.6,0.5,3.1,1.4,4.7,2c4.4,1.8,8.5,4.2,12.6,6.6c2,1.2,4,2.4,5.7,4.1
		c-0.1,0.2-0.3,0.3-0.5,0.4c-1,0.3-2-0.2-2.8-0.6c-1.9-1-3.7-2.1-5.2-3.6c-0.9-0.9-1.9-1.6-3.2-1.6c-0.3,0-0.5-0.1-0.7-0.2
		c-1.5-1.2-3.4-1.6-5.2-2.1c-1.7-0.5-3.6-0.2-5.4-0.1c-0.3,0-0.6,0.2-0.9,0.1c-1.6-0.3-2.9,0.6-4.3,0.9c-2.1,0.5-4.2,1.4-6.2,2.1
		c-0.5,0.2-0.9,0.4-1.1,0.7c-1.2,1.6-2.8,2.8-4.2,4.2c-1.9,1.8-3.9,3.4-5.3,5.5c-0.8,1.4-2.2,2.2-2.9,3.5c-0.3,0.5-0.7,1-0.9,1.6
		c-0.2,0.7-0.8,0.9-1.5,0.7c-0.5-0.1-0.9-0.2-1.3-0.4c-0.9-0.5-1.3-1.2-0.9-2.1c0.3-0.7-0.2-1.6,0.7-2.1c0.2-0.1,0.1-0.2-0.1-0.3
		c-0.6-0.7-0.7-1.4,0-2.2c0.1-0.1,0.2-0.3,0.2-0.5c-0.2-1.3,0.7-2,1.5-2.8c0.1-0.1,0.3-0.2,0.3-0.3c-0.1-1.5,1.7-2.2,1.5-3.7
		c0-0.4,0.2-0.8,0.3-1.1c0.1-0.2,0.2-0.4,0.3-0.6c0.9-1.1,1.6-2.3,2.8-3.1c0.4-0.3,0.7-0.8,0.7-1.6c-1.7,1.3-3.8,1.8-4.7,3.9
		c-0.5,1.1-1.4,1.9-2.4,2.6c-0.9,0.6-1.6,1.4-2.1,2.4c-0.6,1.3-2,1.9-2.8,3c-1.1,1.6-2.5,2.9-3.1,4.8c-0.5,1.7-2,2.8-3.6,3.5
		c-0.3,0.1-0.7,0.1-0.8,0.5c0.2,0.5,0.7,0.5,1.1,0.8c0.2,0.2,0.4,0.3,0.4,0.6c0,0.3-0.3,0.3-0.6,0.4c0,0-0.1,0-0.1,0
		c-1.3,1.1-2.5,0.5-3.7-0.1c-0.3-0.2-0.6-0.1-0.9,0c-0.7,0.4-1.4,0.3-1.9-0.4c-0.3-0.4-0.6-0.7-0.9,0.1c-0.1,0.2-0.4,0.4-0.6,0.4
		c-0.7,0-0.8,0.6-1.2,1c-0.5,0.2-0.9,0-1.3-0.1c-0.6-0.2-1.3-0.1-1.9-0.1c-0.4,0-0.9,0.1-1.1,0.5c-0.5,1-1.4,1.8-1.4,3.1
		c0,1.2,0,2.4-0.2,3.6c0,0.2-0.1,0.5,0,0.6c0.6,1.2,0.3,2.7,0.8,3.9c0.7,1.9,1.1,3.8,2,5.6c0.1,0.2,0.1,0.3,0.2,0.5
		c0.4,3.1,1.4,6,2,9c0.2,0.9,0.4,1.7,0.8,2.4c0.2,0.4,0.3,0.8,0.4,1.2c0.1,1.1,0.1,2.2,0.3,3.3c0.1,0.7,0.2,1.4,0.8,2
		c0.3,0.4,0.6,0.8,0.6,1.4c0,0.1,0,0.2-0.1,0.3C59.6,117.3,59.5,117.4,59.5,117.5z"/>
	<path class="st5" d="M59,118c1.4,1.1,2.9,1.5,4.7,1c1.7-0.4,3.4-0.4,4.7,0.9c0.6,0.6,1.9,1,1.3,2.4c-0.1,0.1,0.2,0.4,0.3,0.6
		c0.7,1.4,0.4,2.5-0.3,3.8c-0.7,1.2-1.5,2.4-2,3.8c-0.6,1.9-1.8,3.4-3.5,4.4c-0.9,0.5-1.9,0.4-2.8,0c-0.9-0.4-1.7-0.4-2.5-0.1
		c-0.9,0.3-1.8,0.3-2.7-0.2c-0.5-0.3-1-0.6-1.6-0.2c-0.6-0.1-0.4-0.7-0.6-1c-0.3-1.1-0.4-2.2-0.9-3.2c-0.4-1.1,0.1-2.1,0.2-3.1
		c0-0.2,0.2-0.4,0.2-0.6C53.6,122.3,55.8,119.8,59,118z"/>
	<path class="st6" d="M54,133.2c0.2,0.3,0.2,0.8,0.5,1c2.4,4.6,6.9,6.6,12,5.5c2.3-0.5,4.4-1.4,6.4-2.8c-2,2.2-4.7,2.9-7.5,3.4
		c-3.4,0.6-6.3-0.5-8.9-2.7c-1.3-1.1-2.1-2.7-2.7-4.2C53.8,133.2,53.8,133.1,54,133.2z"/>
	<path class="st4" d="M95.4,50.2c-0.1,0.2-0.2,0.3-0.4,0.3c-1.4-0.5-3-0.4-4.4-1.2c-0.1-0.1-0.3-0.2-0.4-0.2
		C89.1,49.7,88,49,86.9,49c-0.4,0-0.9,0-1.3-0.2c-0.3-0.2-0.7-0.2-1,0c-0.5,0.3-0.9,1-1.6,0.2c-0.1-0.1-0.9,0.1-1.2,0.4
		c-1,0.5-2.1,0.5-3,0.9c-0.1,0.1-0.2-0.1-0.2-0.3c1.4-0.9,3-1.5,4.6-1.7c2.1-0.2,4.2,0,6.3,0.4C91.5,49,93.4,49.7,95.4,50.2z"/>
	<path class="st4" d="M129.6,66c0.2-0.1,0.4-0.2,0.5-0.3c0.5,0,0.7,0.5,1.2,0.6c-1.3,0.4-2.5,0.9-3.6,1.6c-0.7-0.9,0.5-0.9,0.6-1.4
		C128.6,66.1,129.1,66.2,129.6,66z"/>
	<path class="st4" d="M54,133.2c-0.1,0.1-0.1,0.1-0.2,0.2c-0.7-1-0.6-2.3-0.8-3.4C53.8,130.9,54,132,54,133.2z"/>
	<path class="st6" d="M74.2,135.3c0.1-0.1,0.3-0.1,0.3-0.3C74.4,135.1,74.3,135.2,74.2,135.3z"/>
	<path class="st6" d="M73.8,135.8c0-0.1,0.1-0.2,0.1-0.2C73.9,135.7,73.9,135.8,73.8,135.8z"/>
	<path class="st4" d="M76.9,51.2L76.9,51.2c0,0.1-0.1,0.1-0.1,0.1C76.8,51.3,76.8,51.2,76.9,51.2z"/>
	<path class="st4" d="M78.2,50.1c0,0.1,0,0.2-0.1,0.1C78.1,50.1,78.2,50.1,78.2,50.1z"/>
	<path class="st6" d="M74,135.5c0-0.1,0.1-0.1,0.1-0.1C74.1,135.4,74.1,135.5,74,135.5z"/>
	<path class="st6" d="M73.6,136.1C73.6,136.1,73.7,136.1,73.6,136.1C73.6,136.1,73.6,136.1,73.6,136.1z"/>
	<path class="st6" d="M73.4,136.4C73.4,136.4,73.5,136.3,73.4,136.4C73.4,136.3,73.4,136.3,73.4,136.4z"/>
	<path class="st6" d="M73.2,136.6C73.2,136.6,73.3,136.6,73.2,136.6C73.2,136.5,73.2,136.6,73.2,136.6z"/>
	<path class="st6" d="M72.9,136.8c0.1,0,0.1,0,0.1-0.1C73,136.7,73,136.8,72.9,136.8z"/>
	<path class="st7" d="M129.6,66c-0.1,0.6-0.7,0.5-1.1,0.7C128,67,127.5,67,127,67c-1.3-0.1-2.5-0.1-3.7,0.6c-0.1,0-0.1,0.1-0.2,0.1
		c-1.6-0.3-1.7,0.9-2.1,2c0,0.1-0.1,0.2-0.1,0.3l0,0c-0.6,0.4-1.3,0.5-1.8,0.9c-1,0.8-2.3,1-3.5,1.3c-1.1,0.3-2.1,0.9-3.3,0.8
		c-0.1,0-0.3,0-0.3,0.1c-1,1.5-2.7,1.3-4.1,2c-2.1,1.1-4.6,1.3-6.6,2.7c-0.7,0.4-1.4,0.4-2.1,0.7c-0.8,0.3-1.5,0.6-2.2,1l0,0
		c-0.3,0.4-0.7,0.2-1,0.4c0,0-0.1,0-0.1,0.1c0,0.1,0.1,0.1,0.1,0.1c-0.1,0.1-0.1,0-0.2,0c-0.2,0.1-0.4,0.1-0.6,0.2
		c-1.2-0.2-2,0.5-3,0.9c-0.6,0.3-1.2,0.8-2,0.8c-0.3-0.4,0-0.6,0.2-0.9c0.2-0.3,0.6-0.5,0.3-0.8c-0.3-0.3-0.9-0.5-1.2-0.2
		c-0.6,0.5-1.3,0.5-1.9,0.7c-0.8,0.2-1.6,0.8-2.1,1.5c-1.2,1.6-2.8,2-4.6,1.6c-0.9-0.2-1.8-0.2-2.5-0.8c-0.6-0.4-1.2-0.2-1.5,0.6
		c-0.4,1-0.8,1.9-1.7,2.6c-0.3,0.3-0.5,0.7-0.6,1.2c-0.1,1-0.6,1.9-1,2.8c-0.6,1.3-0.6,1.3-2,1c-0.8-0.4-0.8-0.9-0.5-1.6
		c0.3-0.7,0.7-1.2,1.3-1.7c1.6-1.5,1.4-3.3,0.7-5.2c-0.3-0.7-0.3-1.4,0.1-2.1c0.4-0.7,0.8-1.5,1.3-2.2c0.9-1.3,1.3-2.7,1.3-4.3
		c0-0.9,0.3-1.8,0.8-2.7c0.5-0.9,1.1-1.7,1.4-2.8c0.2-0.7,0.8-1.2,1.3-1.7c0.2-0.2,0.5-0.4,0.5-0.7c-0.1-1.6,1.2-2.6,1.7-3.9
		c0.2-0.4,0.4-0.9,1-0.8c-0.2,0.9-0.1,1.9-0.5,2.6c-0.5,0.9-0.9,1.8-1.5,2.6c-0.5,0.6-1.3,1.3-1.4,1.9c-0.2,0.8-0.2,1.6-0.8,2.3
		c-0.1,0.1-0.2,1.6,1,1.1c0,0.1,0.1,0.2,0.1,0.2c-1.3,0.6-0.8,2-1.4,2.9c-0.2,0.3,0,0.6,0.2,0.9c0.6,0.8,1.6,0.8,2.4,1.1
		c0.4,0.1,0.6-0.3,0.8-0.6c0.6-1.5,1.4-2.9,2.9-3.7c0.1-0.1,0.2-0.1,0.2-0.2c0-1.4,1.3-1.9,1.9-2.9c0.5-0.8,1.2-1.4,1.9-2
		c2.1-2.1,4.7-3.8,6.4-6.3c0.7-0.9,1.8-0.7,2.7-1.2c2-1.1,4.3-1.4,6.4-2.1c2.8-0.9,5.7-0.8,8.4-0.5c1.9,0.2,4,0.9,5.6,2.2
		c0.2,0.1,0.4,0.3,0.6,0.3c1.9-0.1,3,1.1,4.2,2.3c0.8,0.8,1.9,1.3,2.9,2C126.5,65.2,127.9,66,129.6,66z"/>
	<path class="st8" d="M82.2,61.6c-0.2,0.1-0.4,0.2-0.5,0.4c-0.4,1-1,1.9-1.6,2.8c-0.3,0.4-0.4,0.8-0.3,1.3c0.2,0.4-0.1,0.5-0.4,0.8
		c-0.8,0.8-1.7,1.5-1.8,2.7c-0.1,0.7-0.7,1.2-1,1.8c-0.6,1.1-0.9,2.2-0.9,3.4c0,1.1-0.4,2.3-1,3.3C74.2,79,73.6,80,73,80.9
		c-0.3,0.5-0.3,1.1-0.1,1.4c0.5,0.7,0.3,1.5,0.5,2.1c0.6,1.8-0.4,2.8-1.4,3.9c-0.4,0.4-0.7,0.9-1,1.4c-0.4,0.7-0.1,1,0.3,1.4
		c0.2,0.8,0,1.2-0.9,1.2c-0.2,0-0.3,0.1-0.4,0.3c-1.1,0.4-1.7,1.6-3,1.7c-0.5,0-0.6-0.2-0.8-0.4c-0.3-0.3-0.2-0.7-0.5-1
		c-0.3,0.8-0.1,1.7-0.3,2.5c-0.3,0.2-0.4,0.6-0.6,0.9c-0.4,0.6-0.9,1.2,0.2,1.8c0.4,0.2,0.4,0.6,0.1,1c-0.4,0.5-0.7,1.1-1,1.6
		c-0.2,0.3-0.3,0.7-0.1,0.9c0.9,1.3,0.9,2.9,1.6,4.2c0.3,0.6,1,1,1.2,1.8c0.2,0.8,0,1.6-0.2,2.3c0.4,0.4,0.2,0.9,0.4,1.4
		c0.1,0.6,0.2,1.1,0.2,1.7c0,0.4,0.1,0.9-0.4,1.1c-0.4-0.8-1-1.4-1.9-1.6c-0.4-0.1-0.7-0.4-0.7-0.9c-0.1-0.9-0.3-1.6-0.8-2.3
		c-0.2-0.3-0.2-0.6-0.2-0.9c0.1-2.9-0.4-5.7-1.1-8.4c-0.3-1.3,0-2.7-0.6-4c-0.8-2-0.9-4.2-1.4-6.2c-0.3-1.3-0.8-2.8-2.1-3.8
		c-1.6-1.1-2.1-2.9-2.6-4.6c-0.2-0.9,0.2-1.5,1.1-1.8c0.4,0.1,0.9,0.1,1.3,0.2c0.3-0.4,0.7-0.5,1.2-0.3c1.5,0.6,3.1,0.5,4.6,1.2
		c0.3,0.2,0.6,0.1,0.9,0c0.3-0.2,0.6-0.2,0.9-0.2c1.5,0.1,2.9-0.7,3.4-2.1c0.3-0.9,0.9-1.3,1.7-1.4c0.7-0.1,1-0.4,0.8-1.1
		c-0.1-0.7,0.1-1.1,0.6-1.5c0.7-0.6,1.2-1.4,1.4-2.4c0.1-0.5,0.4-0.9,0.8-1.3c0.8-0.6,1.2-1.5,1.5-2.4c0.4-1.1,0.9-2.2,2-2.9
		c0.4-0.3,0.7-0.7,0.9-1.2c0.6-1.3,1.7-2.2,2.7-3.2c0.3-0.4,0.8-0.4,1.1,0.1C82.4,61.3,82.3,61.5,82.2,61.6z"/>
	<path class="st7" d="M56.6,79.7c-1.2,0.9-0.7,1.9-0.3,3.1c0.5,1.5,1.3,2.6,2.7,3.5c0.1,0.1,0.3,0.2,0.3,0.3
		c0.2,1.4,1.2,2.4,1.4,3.8c0.2,1.5,0.2,3.2,0.9,4.7c0.6,1.3,0.7,2.8,0.8,4.3c0.2,1.8,0.8,3.6,0.9,5.4c0.1,1.1,0.6,2.3,0.2,3.4
		c-0.2,0.5-0.1,1.1,0.4,1.6c0.4,0.4,0.6,1,0.5,1.5c-0.1,0.8,0.3,1.1,0.9,1.3c1,0.2,1.6,0.7,1.4,1.8c0,0.1,0,0.3,0,0.4
		c0,0.2-0.1,0.4,0,0.6c0,0.1,0,0.2,0,0.3c-0.9,2.4-4.5,3.5-7,2.1c-0.1,0-0.1-0.2-0.2-0.3l-0.1,0c0,0-0.1,0-0.1,0
		c0-0.1,0-0.1-0.1-0.1c0.1-0.7-0.2-1.3-0.8-1.8c-0.5-0.4-0.6-0.9-0.6-1.5c-0.1-1.4-0.2-2.8-0.3-4.2c-0.1-0.7-0.9-1.4-1-2.2
		c-0.4-3.1-1.6-6-2.1-9.1c-0.3-2.1-1.3-4.1-2-6.2c-0.3-0.9-0.6-1.8-0.5-2.8c0-0.3-0.1-0.5-0.2-0.7c-0.3-0.7-0.4-1.3-0.3-2.1
		c0.2-1.3,0.1-2.6,0.1-3.9c0-0.5-0.1-1,0.5-1.2c0.6-0.2,0.3-0.9,0.6-1.3C53.8,79.4,55.2,79,56.6,79.7z"/>
	<path class="st6" d="M70.1,92.6c-0.3-0.7-0.2-0.9,0.1-0.7c1.1,0.7,0.9-0.4,1.2-0.8c1,0.2,1.3-0.3,1.8-1.2c0.6-1,0.6-2.1,1.1-3.1
		c0.3-0.5,0.5-1,1-1.3c0.6-0.4,0.7-1.3,1-2c0.4-1,1.4-1.3,2.2-0.6c0.8,0.7,1.7,0.5,2.6,0.7c0.4,0.1,0.9,0.2,1.3,0.2
		c0.9,0,1.9-0.5,2.4-1.3c0.6-1,1.7-1.6,2.6-2c0.6-0.3,1.4-0.4,2.1-0.8c0.2-0.2,0.8,0.1,1.1,0.2c0.6,0.2,0.8,0.5,0.3,1
		c-0.3,0.3-0.7,0.6-0.8,1.1c0,0,0,0,0,0c-0.3,0.2-0.6,0-0.9,0.2c-1.5,0.8-2.7,1.8-4.4,2.3c-1.7,0.5-3.5,1.3-4.6,2.6
		c-0.9,1-2.1,0.9-2.8,1.6c-1.2,1.1-3,1.2-3.9,2.6c0,0,0,0.1-0.1,0.1C72.1,91.4,71.4,92.7,70.1,92.6z"/>
	<path class="st9" d="M66.9,114.6c0-0.1,0-0.2,0-0.3c0.4-1.2,0-2.3-0.3-3.4c0.9-0.2,0.9,0.6,1.3,1l0,0c0.4,0.7,1.1,1.2,1.5,2l0,0
		c0.1,0.2,0.1,0.4,0.2,0.5c0.1,0.5,0.4,1,0.7,1.4c0.2,0.2,0.5,0.4,0.3,0.7c-0.2,0.3-0.7,0.3-0.9,0.1c-0.8-0.8-1.9-0.7-2.9-1.1
		c0,0,0,0,0,0C66.6,115.2,66.6,114.9,66.9,114.6z"/>
	<path class="st5" d="M65.6,95.5c-0.2-1-0.1-2,0.2-2.9c0.4,0.4,0.4,0.9,0.5,1.4c0,0.1,0,0.3,0,0.4C66.9,95.3,66.4,95.5,65.6,95.5z"
		/>
	<path class="st6" d="M67.9,111.9c-0.5-0.3-0.5-1.1-1.3-1c0.1-0.3,0.2-0.6,0.1-0.9C67.6,110.4,67.9,111.1,67.9,111.9z"/>
	<path class="st6" d="M69.4,113.9c-0.6-0.6-1.2-1.2-1.5-2C68.6,112.4,69.2,113,69.4,113.9z"/>
	<path class="st7" d="M89.2,82.2c0.2-0.4,0.6-0.2,0.9-0.2C89.8,82.3,89.5,82.2,89.2,82.2z"/>
	<path class="st6" d="M69.6,114.4c-0.1-0.2-0.2-0.4-0.2-0.5C69.5,114,69.6,114.2,69.6,114.4z"/>
	<path class="st7" d="M59.5,117.5l0-0.1c0-0.1,0.1-0.1,0.1-0.1c0,0,0.1,0.1,0.1,0.1C59.7,117.5,59.6,117.7,59.5,117.5z"/>
	<path class="st9" d="M97.2,87.8c0.8-0.3,1.1,0.1,1.1,0.8c0,0.1,0.1,0.4,0.3,0.4c0.3,0.2,0.7,0.2,0.5,0.8c-0.2,0.4-0.5,0.7-1,0.7
		c-0.9,0-1.7-0.1-2.5,0.6c0.2-0.7,0.1-1.3-0.1-1.9c-0.1-0.3-0.2-0.5-0.5-0.6c-0.3,0-0.6,0-0.7,0.3c-0.4,0.9-1.1,1.2-2,1.5
		c-0.8,0.2-1.2,1.1-2,1.6c-0.9,0.5-1.7,0.6-2.6,0.4c-1.5-0.3-2.9,0-4.3,0.4c-1.5,0.4-3,1-4.6,0.9c-1,0-1.4,0.9-2.3,1.2
		c-0.2,0.1-0.4,0.5-0.6,0.2c-0.2-0.3,0-0.6,0.3-0.7c0.6-0.5,1.4-0.7,1.7-1.6c0.4-1.8,1.9-2.3,3.4-3.1c1.4-0.7,2.7-1.7,3.7-2.9
		c0.1-0.2,0.3-0.4,0.5-0.4c1.3-0.1,2.2-1.1,3.4-1.6c1.4-0.6,2.5-1.6,3.9-2.3c1.4-0.7,2.6-1.6,4.1-2c2.3-0.7,4.6-1.5,6.8-2.4
		c1.2-0.6,2.4-1.3,3.7-1.7c1.1-0.4,2.3-0.7,3.5-0.8c0.7-0.1,1.3-0.2,1.9-0.5c0.6-0.3,1.5,0.1,1.9-0.2c0.9-0.6,1.7-0.3,2.6-0.5
		c0.7-0.2,0.8,0.1,0.4,0.6c-0.4,0.5-0.1,1.1-0.5,1.7c-0.6,0.9-1.5,1.3-2.4,1.7c-1.5,0.7-2.9,1.6-4.4,2.2c-0.5,0.2-0.8,0.7-1.2,1.1
		c-0.4,0.3-0.5,1-1.3,0.7c-0.3-0.1-0.4,0.4-0.5,0.6c-0.5,0.8-0.9,1.9-2,1.9c-1.8,0-3.2,1.4-5.1,0.9C98.5,85.4,97.6,86.2,97.2,87.8z"
		/>
	<path class="st8" d="M120.9,69.9c0.2-0.7,0-1.5,0.5-2.1c0.3-0.3,0.6-0.7,1.1-0.3c0.2,0.1,0.4,0.2,0.6,0c0.4-0.9,1.2-0.5,1.9-0.7
		c1.2-0.4,2.4,0.1,3.6-0.1c0.1,0.7-1.1,0.5-0.9,1.3c-0.2,0.1-0.3,0.1-0.5,0.2c-0.2,0-0.3,0.1-0.4,0.3c-1.4,0-2.5,0.8-3.9,1.1
		C122.2,69.5,121.5,69.8,120.9,69.9z"/>
	<path class="st4" d="M96.9,79.5c1.2-1.2,2.7-1.6,4.3-1.7C99.8,78.5,98.3,78.9,96.9,79.5z"/>
	<path class="st8" d="M119.1,70.9c0.5-0.6,1-1,1.8-0.9C120.6,70.9,119.8,70.7,119.1,70.9z"/>
	<path class="st4" d="M95.8,79.9c0.2-0.4,0.7-0.3,1-0.4C96.6,79.9,96.2,80,95.8,79.9z"/>
	<path class="st4" d="M126.7,68.4c0-0.3,0.1-0.5,0.4-0.3C127.1,68.3,126.9,68.4,126.7,68.4z"/>
	<path class="st4" d="M95.6,80.1c0-0.1,0.1-0.1,0.1-0.1C95.8,80.1,95.7,80.2,95.6,80.1z"/>
	<path class="st7" d="M82.5,61.2c-0.4-0.2-0.8-0.4-1,0.1c-0.5,0.9-1.6,1.4-2,2.4c-0.6,1.7-2.6,2.4-3.1,4.1c-0.4,1.4-1.2,2.7-2.3,3.7
		c-0.6,0.6-0.3,1.7-1,2.3c-0.3,0.3-0.5,0.7-0.9,0.9c-0.3,0.3-0.5,0.6-0.4,1.1c0.2,0.8,0.2,1.6-1.1,1.5c-0.8,0-1.5,0.4-1.4,1.4
		c0,0.8-0.8,0.8-1.1,1.2c-0.6,1-1.6,1.3-2.7,0.9c-0.2-0.1-0.4-0.1-0.5,0c-0.8,1-1.6,0.1-2.3-0.1c-0.6-0.1-1.1-0.4-1.8-0.4
		c-0.6,0-1.1,0-1.6-0.4c-0.4-0.3-0.9-0.2-1.3-0.1c0.1-0.5-0.1-1.3,1-1.1c0.4,0.1,0.9-0.5,0.5-1.3c0.7,0.2,1.2,0.4,1.5,0.9
		c0.5,0.7,1,0.6,1.5,0.2c0.5-0.4,0.9-0.3,1.3,0c0.5,0.4,1.2,0.4,1.8,0.7c0.3,0.2,0.7,0.1,0.8-0.1c0.2-0.8,0.8-0.7,1.5-0.4
		c-0.3-0.9-1.1-0.9-1.5-1.3c-0.2-0.1-0.4-0.1-0.4-0.4c0-0.2,0.2-0.4,0.4-0.4c1-0.1,1.7-0.7,2.4-1.2c0.8-0.6,1.6-1.4,1.9-2.5
		c0.3-1,0.6-2.1,1.6-2.7c0.1-0.1,0.3-0.2,0.3-0.3c0.3-1.6,1.7-2.2,2.7-3.2c0.6-0.6,1.2-1.2,1.5-2c0.3-0.9,1.2-1.5,2-2.1
		c1-0.7,1.8-1.6,2.4-2.7c0.6-1.1,1.3-2,2.6-2.5c0.6-0.2,1.1-0.7,1.7-1.1c0.2-0.2,0.5-0.4,0.8-0.2c0.2,0.2,0.2,0.5,0.1,0.8
		c-0.1,0.3-0.1,0.6-0.3,0.8C84.5,58.7,83.6,60,82.5,61.2z"/>
	<path class="st4" d="M59.6,117.3c-0.1,0-0.1,0-0.1,0.1c0,0,0.1-0.1,0-0.1C59.5,117.3,59.6,117.3,59.6,117.3z"/>
	<path class="st6" d="M102.4,64c1-0.4,2.3-0.3,3.5-0.6c0.3-0.1,0.7-0.2,1-0.2c0.6,0,1.2,0.2,1.3,0.7c0.1,0.5-0.5,0.7-0.9,0.9
		c-0.4,0.2-0.8,0.3-0.9,0.8c-0.1,0.3-0.1,0.8,0.3,0.9c1.1,0.3,1.4,1.5,2.2,2.1c0.2,0.2,0.4,0.5,0.2,0.8c-0.2,0.3-0.4,0.2-0.7,0.1
		c-0.9-0.1-1.9-0.2-2.7,0.4c-0.6,0.4-1.3-0.3-1.9,0.2c-1.2,1-2.7,1.1-4.2,1.5c-1.5,0.4-2.5,1.1-3.3,2.5c-0.5,0.8-1,1.8-2.5,1.3
		c-0.9-0.4-2.1-0.4-3.2-0.5c-1-0.1-1-0.6-0.6-1.2c1.5-2,2.6-4.3,4.8-5.6c0.5-0.3,1.1-0.4,1.6-0.6c0.6-0.2,1.1-0.5,1.6-1
		c0.9-0.9,2.1-1.4,3-2.3C101.5,63.9,101.8,63.7,102.4,64z"/>
	<path class="st8" d="M106.1,60.1c0,1-0.6,1.2-1.2,1.3c-2.2,0.4-4.2,1.4-6.3,2.4c-2.9,1.4-5.3,3.5-7.8,5.3c-1.4,0.9-2.9,2-3.9,3.5
		c-0.2,0.3-0.4,0.5-0.7,0.3c-0.3-0.2-0.2-0.5,0-0.7c1.3-1.8,2.3-3.9,4-5.3c2.1-1.6,3.8-3.8,6-5.1c1.5-0.9,3.3-1.4,5.1-1.7
		c1.2-0.3,2.4-0.8,3.7-0.7C105.6,59.3,106,59.5,106.1,60.1z"/>
	<path class="st4" d="M66.9,114.6c0,0.3,0,0.6,0,1C66.5,115.2,66.7,114.9,66.9,114.6z"/>
</g>
</svg>
