<svg width="749" height="303" viewBox="0 0 749 303" fill="none" xmlns="http://www.w3.org/2000/svg">
<path d="M50.9 0H75.2L126.1 140H104.1L94.4 113.4H31.7L22.1 140H0L50.9 0ZM39.4 92.6H86.7L63 27.6L39.4 92.6Z" fill="white"/>
<path d="M176.199 139.9C169.999 139.6 163.999 138.6 158.099 136.9C152.199 135.2 147.099 132.9 142.599 129.9C138.199 127 134.899 123.5 132.699 119.5L153.499 112.3C154.499 114 156.299 115.7 158.899 117.3C161.399 118.9 164.399 120.3 167.899 121.3C171.399 122.3 174.999 122.9 178.699 122.9C182.399 122.9 185.799 122.5 188.999 121.6C192.199 120.7 194.799 119.4 196.799 117.7C198.799 115.9 199.899 113.8 199.899 111.3C199.899 108.5 198.699 106.4 196.399 104.8C194.099 103.3 191.199 102.1 187.799 101.2C184.299 100.4 180.899 99.5999 177.399 98.7999C169.699 97.3999 162.699 95.4999 156.299 93.0999C149.899 90.6999 144.799 87.4999 141.099 83.6999C137.299 79.8999 135.499 75.1999 135.499 69.5999C135.499 63.4999 137.499 58.2999 141.599 53.7999C145.699 49.2999 150.999 45.8999 157.699 43.4999C164.299 41.0999 171.399 39.8999 178.899 39.8999C188.299 39.8999 196.899 41.4999 204.799 44.6999C212.599 47.8999 218.599 52.3999 222.799 57.9999L203.399 67.2999C202.199 65.3999 200.499 63.6999 198.099 62.1999C195.699 60.6999 193.099 59.4999 190.099 58.4999C187.099 57.5999 183.999 57.0999 180.799 56.8999C176.799 56.7999 173.099 57.0999 169.699 57.9999C166.299 58.8999 163.599 60.1999 161.499 61.9999C159.499 63.7999 158.399 66.1999 158.399 68.9999C158.399 71.7999 159.599 73.8999 161.999 75.1999C164.399 76.5999 167.499 77.6999 171.199 78.4999C174.899 79.2999 178.699 80.1999 182.699 81.2999C189.699 83.0999 196.199 85.1999 202.299 87.7999C208.399 90.3999 213.399 93.4999 217.099 97.1999C220.899 100.9 222.699 105.5 222.499 110.9C222.499 116.8 220.299 122.1 215.899 126.6C211.499 131.1 205.699 134.5 198.699 136.8C191.599 139.3 184.099 140.3 176.199 139.9Z" fill="white"/>
<path d="M257.499 40H236.699V140H257.499V40Z" fill="white"/>
<path d="M247.2 3.69995C244.1 3.69995 241.4 4.69996 239.3 6.79996C237.2 8.89996 236.1 11.4999 236.1 14.5999C236.1 17.6999 237.2 20.2999 239.3 22.3999C241.4 24.4999 244.1 25.4999 247.3 25.4999C250.4 25.4999 252.9 24.4999 255.1 22.3999C257.2 20.2999 258.2 17.6999 258.2 14.5999C258.2 11.4999 257.1 8.99996 255 6.79996C252.9 4.79996 250.3 3.69995 247.2 3.69995Z" fill="white"/>
<path d="M513.099 39.9999H492.399H492.299V95.8999C492.299 100.3 491.199 104.2 489.099 107.8C486.899 111.4 483.999 114.2 480.399 116.3C476.799 118.4 472.699 119.5 468.299 119.5C463.899 119.5 459.899 118.4 456.199 116.3C452.499 114.2 449.599 111.3 447.399 107.8C445.199 104.2 444.099 100.3 444.099 95.8999V39.9999H423.199V100.9C423.199 108.1 424.999 114.7 428.599 120.6C432.199 126.5 436.999 131.2 443.099 134.7C449.199 138.2 455.899 140 463.299 140C469.099 140 474.499 138.8 479.599 136.5C484.699 134.2 488.899 131 492.299 126.9L492.399 137.4V139.9H513.199V39.8999H513.099V39.9999Z" fill="white"/>
<path d="M352.9 39.9999V42.6999V56.9999C349.3 52.1999 345.4 47.7999 339.9 44.6999C334.3 41.5999 327.9 39.9999 320.7 39.9999C313.6 39.9999 306.9 41.2999 300.6 43.7999C294.4 46.3999 288.9 49.8999 284.2 54.3999C279.5 58.8999 275.8 64.0999 273.1 70.0999C270.4 76.0999 269.1 82.4999 269.1 89.1999C269.1 96.1999 270.5 102.8 273.2 108.9C275.9 115 279.7 120.4 284.6 125.1C289.5 129.8 295.2 133.4 301.7 136.1C308.2 138.7 315.1 140 322.4 140C329.2 140 335.1 138.5 340.1 135.5C345 132.6 349.9 127.4 352.9 122.6V140H373.7V137.5V42.5999V39.8999H352.9V39.9999ZM317.7 120.3C301.1 120.3 287.7 106.9 287.7 90.2999C287.7 73.6999 301.1 60.2999 317.7 60.2999C334.3 60.2999 347.7 73.6999 347.7 90.2999C347.7 106.9 334.2 120.3 317.7 120.3Z" fill="white"/>
<path d="M680.299 140C671.099 140 662.699 137.8 655.099 133.3C647.499 128.8 641.499 122.8 636.999 115.2C632.499 107.6 630.199 99.3 630.199 90.1C630.199 83.1 631.499 76.6 634.099 70.6C636.699 64.6 640.299 59.2 644.899 54.7C649.499 50.1 654.799 46.5 660.799 43.9C666.899 41.3 673.299 40 680.199 40C687.899 40 694.899 41.5 701.299 44.5C707.699 47.5 713.199 51.6 717.699 56.9C722.199 62.2 725.599 68.3 727.699 75.1C729.799 82 730.499 89.3 729.599 97H652.499C653.399 101.4 654.999 105.3 657.499 108.8C659.999 112.3 663.199 115.1 667.099 117.1C670.999 119.1 675.299 120.2 680.099 120.2C685.199 120.2 689.799 119 693.899 116.6C698.099 114.2 701.499 110.9 704.099 106.6L725.199 111.2C721.199 119.6 715.199 126.5 707.099 131.8C699.399 137.3 690.299 140 680.299 140ZM651.899 82H708.699C707.999 77.4 706.299 73.3 703.599 69.6C700.899 65.9 697.499 63 693.499 60.8C689.499 58.6 684.999 57.5 680.299 57.5C675.599 57.5 671.199 58.6 667.099 60.7C663.099 62.9 659.699 65.8 657.099 69.5C654.499 73.2 652.799 77.3 651.899 82Z" fill="white"/>
<path d="M388.101 140L387.801 0H408.501L408.601 140H388.101Z" fill="white"/>
<path d="M579.4 69.1L558.3 40H528.3L564.5 89.9L528 140H558L579.4 110.4L600.9 140H630.8L594.4 89.9" fill="white"/>
<path d="M600.4 81.6L630.5 40H600.6L585.4 60.9L600.4 81.6Z" fill="white"/>
<path d="M237.4 202.2V204.9V219.2C233.8 214.4 229.9 210 224.4 206.9C218.8 203.8 212.4 202.2 205.2 202.2C198.1 202.2 191.4 203.5 185.1 206C178.9 208.6 173.4 212.1 168.7 216.6C164 221.1 160.3 226.3 157.6 232.3C154.9 238.3 153.6 244.7 153.6 251.4C153.6 258.4 155 265 157.7 271.1C160.4 277.2 164.2 282.6 169.1 287.3C174 292 179.7 295.6 186.2 298.3C192.7 300.9 199.6 302.2 206.9 302.2C213.7 302.2 219.6 300.7 224.6 297.7C229.5 294.8 234.4 289.6 237.4 284.8V302.2H258.2V299.7V204.8V202.1H237.4V202.2ZM202.2 282.5C185.6 282.5 172.2 269.1 172.2 252.5C172.2 235.9 185.6 222.5 202.2 222.5C218.8 222.5 232.2 235.9 232.2 252.5C232.2 269.1 218.7 282.5 202.2 282.5Z" fill="white"/>
<path d="M105.4 302.2V202.2H126.2V212.8C129.7 208.7 133.9 205.4 139 203C144.1 200.6 149.5 199.4 155.4 199.4C159.1 199.4 162.8 199.9 166.5 200.9L158.2 221.9C155.6 220.9 153 220.4 150.4 220.4C146 220.4 142 221.5 138.3 223.6C134.6 225.8 131.7 228.7 129.5 232.4C127.3 236.1 126.2 240.1 126.2 244.6V302.2H105.4Z" fill="white"/>
<path d="M337.3 302.2H310.6L274.1 202H296.3L323.9 278.2L351.6 202H373.7L337.3 302.2Z" fill="white"/>
<path d="M429.299 302.2C420.099 302.2 411.699 299.8 404.099 295.1C396.499 290.4 390.499 284 385.999 276.1C381.499 268.1 379.199 259.3 379.199 249.6C379.199 242.3 380.499 235.4 383.099 229.1C385.699 222.7 389.299 217.1 393.899 212.3C398.499 207.5 403.799 203.7 409.799 200.9C415.899 198.2 422.299 196.8 429.199 196.8C436.899 196.8 443.899 198.4 450.299 201.6C456.699 204.8 462.199 209.1 466.699 214.7C471.199 220.3 474.599 226.7 476.699 233.9C478.799 241.1 479.499 248.8 478.599 256.9H401.499C402.399 261.5 403.999 265.7 406.499 269.4C408.999 273.1 412.199 276 416.099 278.2C419.999 280.3 424.299 281.4 429.099 281.5C434.199 281.5 438.799 280.2 442.899 277.7C447.099 275.2 450.499 271.7 453.099 267.2L474.199 272.1C470.199 281 464.199 288.2 456.099 293.9C448.399 299.4 439.299 302.2 429.299 302.2ZM400.899 241H457.699C456.999 236.2 455.299 231.9 452.599 228C449.899 224.1 446.499 221 442.499 218.7C438.499 216.4 433.999 215.3 429.299 215.3C424.599 215.3 420.199 216.4 416.099 218.7C412.099 221 408.699 224.1 406.099 227.9C403.499 231.7 401.799 236.1 400.899 241Z" fill="white"/>
<path d="M492.7 302.2L492.4 162.2H513.1L513.2 302.2H492.7Z" fill="white"/>
<path d="M126.1 162H0V183H8.10004H52.6V302.2H73.4V183H118H126.1V162Z" fill="white"/>
<path d="M738.3 29.8C736.7 29.8 735.3 29.3 734.2 28.2C733.1 27.1 732.5 25.8 732.5 24.1C732.5 22.4 733.1 21 734.2 19.9C735.3 18.8 736.7 18.3 738.3 18.3C739.3 18.3 740.2 18.5 741.1 19C742 19.4 742.6 20 743.1 20.7L741.9 21.8C741 20.6 739.8 20 738.4 20C737.3 20 736.3 20.4 735.5 21.2C734.7 22 734.3 23 734.3 24.1C734.3 25.3 734.7 26.2 735.4 27C736.2 27.8 737.1 28.1 738.3 28.1C739.8 28.1 741 27.5 741.9 26.3L743.1 27.4C742.6 28.1 741.9 28.7 741 29.2C740.3 29.6 739.4 29.8 738.3 29.8Z" fill="white" stroke="white" stroke-miterlimit="10"/>
<path d="M737.9 33.4999C743.091 33.4999 747.3 29.2914 747.3 24.0999C747.3 18.9085 743.091 14.7 737.9 14.7C732.708 14.7 728.5 18.9085 728.5 24.0999C728.5 29.2914 732.708 33.4999 737.9 33.4999Z" stroke="white" stroke-width="2" stroke-miterlimit="10"/>
<path d="M728.201 232.2C728.201 254.3 728.101 254.4 705.501 260.3C685.701 265.5 666.401 261.8 647.201 256.9C626.901 251.8 606.801 245.9 586.401 241.7C569.001 238.1 551.701 240.3 535.601 248.6C530.101 251.4 528.201 249.5 528.301 244C528.401 234.9 528.501 225.8 528.301 216.6C528.201 211.9 530.301 209.6 534.401 207.6C555.201 197.3 576.801 197.1 598.701 202.5C618.301 207.3 637.601 213.1 657.101 217.9C678.901 223.3 700.601 223.7 721.301 213.1C726.301 210.5 728.301 212.3 728.301 217.4C728.201 222.4 728.201 227.3 728.201 232.2Z" fill="white"/>
<path d="M728.2 184.2C728.2 202.1 726.3 203.9 707.5 208.7C685.5 214.3 664.2 208.8 643.3 204.5C626 200.9 628.5 202.9 628.3 185.8C628.2 180.4 628.5 175 628.2 169.6C628 163.6 629.9 161.7 636.7 163.5C647.5 166.4 658.4 168.9 669.5 170.7C686.2 173.5 703.2 170.6 720.5 164.5C725.9 162 728.5 162.6 728.2 168.8" fill="white"/>
<path d="M528.199 279.1C528.199 260.3 530.099 258.4 548.899 253.3C570.899 247.4 592.199 253.2 613.099 257.7C630.399 261.5 627.899 259.4 628.099 277.4C628.199 283.1 627.899 288.7 628.199 294.4C628.399 300.7 626.499 302.7 619.699 300.9C608.899 297.9 597.999 295.2 586.899 293.3C570.199 290.4 553.199 293.4 535.899 299.8C530.499 302.4 527.899 301.8 528.199 295.3" fill="white"/>
</svg>
