<svg width="24" height="24" viewBox="0 0 24 24" fill="none" xmlns="http://www.w3.org/2000/svg">
<g clip-path="url(#clip0_1_709)">
<path d="M14.081 7.11589L17.393 3.80389C18.167 3.02989 19.422 3.02989 20.196 3.80389C20.97 4.57789 20.97 5.83289 20.196 6.60689L16.884 9.91889L18.676 18.8359C18.742 19.1639 18.639 19.5029 18.403 19.7399L17.743 20.3999C17.233 20.9099 16.366 20.7279 16.104 20.0559L13.48 13.3229L10.074 16.7289L10.256 18.8989C10.281 19.1919 10.175 19.4819 9.967 19.6899L8.881 20.7759L6.76 17.2399L3.224 15.1189L4.31 14.0329C4.518 13.8249 4.807 13.7189 5.101 13.7439L7.271 13.9259L10.677 10.5199L3.945 7.89589C3.272 7.63389 3.09 6.76789 3.6 6.25689L4.26 5.59689C4.497 5.35989 4.836 5.25789 5.164 5.32389L14.081 7.11589Z" stroke="#3392FF" stroke-width="1.5" stroke-linecap="round" stroke-linejoin="round"/>
</g>
<defs>
<clipPath id="clip0_1_709">
<rect width="24" height="24" fill="white"/>
</clipPath>
</defs>
</svg>
