<svg width="14" height="16" viewBox="0 0 14 16" fill="none" xmlns="http://www.w3.org/2000/svg">
<path d="M13.2218 15V13.4445C13.2218 12.6194 12.894 11.828 12.3106 11.2446C11.7271 10.6612 10.9358 10.3334 10.1107 10.3334H3.88845C3.06334 10.3334 2.27201 10.6612 1.68857 11.2446C1.10512 11.828 0.777344 12.6194 0.777344 13.4445V15" fill="#A6C8FF"/>
<path d="M13.2218 15V13.4445C13.2218 12.6194 12.894 11.828 12.3106 11.2446C11.7271 10.6612 10.9358 10.3334 10.1107 10.3334H3.88845C3.06334 10.3334 2.27201 10.6612 1.68857 11.2446C1.10512 11.828 0.777344 12.6194 0.777344 13.4445V15H13.2218Z" stroke="#0074FF" stroke-linecap="round" stroke-linejoin="round"/>
<path d="M6.99881 7.22222C8.71703 7.22222 10.1099 5.82933 10.1099 4.11111C10.1099 2.39289 8.71703 1 6.99881 1C5.28059 1 3.8877 2.39289 3.8877 4.11111C3.8877 5.82933 5.28059 7.22222 6.99881 7.22222Z" fill="#A6C8FF" stroke="#0074FF" stroke-linecap="round" stroke-linejoin="round"/>
</svg>
