<svg width="14" height="14" viewBox="0 0 14 14" fill="none" xmlns="http://www.w3.org/2000/svg">
<path d="M13.624 6.08932C13.6236 6.089 13.6233 6.08858 13.623 6.08826L7.91149 0.377579C7.66804 0.134048 7.34437 0 7.00008 0C6.65579 0 6.33212 0.134048 6.08857 0.377579L0.380088 6.08537C0.378165 6.0873 0.376136 6.08932 0.37432 6.09125C-0.125609 6.59401 -0.124754 7.40973 0.376777 7.91121C0.605911 8.14043 0.908431 8.27309 1.232 8.28708C1.24524 8.28836 1.25849 8.289 1.27184 8.289H1.49937V12.4916C1.49937 13.3233 2.1762 14 3.00802 14H5.24253C5.4691 14 5.65273 13.8163 5.65273 13.5898V10.2949C5.65273 9.91542 5.96155 9.60674 6.34109 9.60674H7.65907C8.03861 9.60674 8.34732 9.91542 8.34732 10.2949V13.5898C8.34732 13.8163 8.53095 14 8.75752 14H10.992C11.824 14 12.5007 13.3233 12.5007 12.4916V8.289H12.7118C13.0559 8.289 13.3796 8.15495 13.6233 7.91132C14.1253 7.40909 14.1256 6.59187 13.624 6.08932ZM13.0431 7.33133C12.9546 7.41988 12.8369 7.46869 12.7118 7.46869H12.0905C11.8639 7.46869 11.6803 7.6523 11.6803 7.87885V12.4916C11.6803 12.871 11.3716 13.1797 10.992 13.1797H9.16772V10.2949C9.16772 9.46318 8.491 8.78642 7.65907 8.78642H6.34109C5.50916 8.78642 4.83233 9.46318 4.83233 10.2949V13.1797H3.00802C2.62859 13.1797 2.31977 12.871 2.31977 12.4916V7.87885C2.31977 7.6523 2.13614 7.46869 1.90957 7.46869H1.29897C1.29256 7.46826 1.28626 7.46794 1.27975 7.46783C1.15754 7.4657 1.04292 7.41721 0.957035 7.33122C0.774369 7.14857 0.774369 6.85132 0.957035 6.66856C0.957142 6.66856 0.957142 6.66846 0.957249 6.66835L0.95757 6.66803L6.66882 0.957565C6.75727 0.869019 6.87488 0.820312 7.00008 0.820312C7.12517 0.820312 7.24278 0.869019 7.33134 0.957565L13.0413 6.66685C13.0422 6.66771 13.0431 6.66856 13.044 6.66942C13.2257 6.85239 13.2254 7.149 13.0431 7.33133Z" fill="black" fill-opacity="0.6"/>
</svg>
