<svg width="15" height="14" viewBox="0 0 15 14" fill="none" xmlns="http://www.w3.org/2000/svg">
<path d="M1.36621 0.952532C1.36621 0.700835 1.56899 0.5 1.81518 0.5H6.22896C6.47515 0.5 6.67793 0.700835 6.67793 0.952532V5.38291C6.67793 5.63461 6.47515 5.83544 6.22896 5.83544H1.81518C1.56899 5.83544 1.36621 5.63461 1.36621 5.38291V0.952532ZM8.91379 0.952532C8.91379 0.700835 9.11657 0.5 9.36276 0.5H13.7765C14.0227 0.5 14.2255 0.700834 14.2255 0.952532V5.38291C14.2255 5.63461 14.0227 5.83544 13.7765 5.83544H9.36276C9.11657 5.83544 8.91379 5.63461 8.91379 5.38291V0.952532ZM1.36621 8.61709C1.36621 8.36539 1.56899 8.16456 1.81518 8.16456H6.22896C6.47515 8.16456 6.67793 8.36539 6.67793 8.61709V13.0475C6.67793 13.2992 6.47516 13.5 6.22896 13.5H1.81518C1.56899 13.5 1.36621 13.2992 1.36621 13.0475V8.61709Z" fill="#A6C8FF" stroke="#0074FF"/>
<path d="M8.91382 8.61696C8.91382 8.36526 9.11659 8.16443 9.36278 8.16443H13.7766C14.0228 8.16443 14.2255 8.36526 14.2255 8.61696V13.0473C14.2255 13.299 14.0228 13.4999 13.7766 13.4999H9.36278C9.11659 13.4999 8.91382 13.299 8.91382 13.0473V8.61696Z" fill="#A6C8FF" stroke="#0074FF"/>
</svg>
