<svg width="16" height="16" viewBox="0 0 16 16" fill="none" xmlns="http://www.w3.org/2000/svg">
<path d="M8 15C11.866 15 15 11.866 15 8C15 4.13401 11.866 1 8 1C4.13401 1 1 4.13401 1 8C1 11.866 4.13401 15 8 15Z" stroke="black" stroke-opacity="0.6" stroke-linecap="round" stroke-linejoin="round"/>
<path d="M5.96289 5.90008C6.12746 5.43225 6.4523 5.03776 6.87986 4.78647C7.30742 4.53519 7.81012 4.44334 8.29891 4.52718C8.78771 4.61102 9.23106 4.86515 9.55044 5.24455C9.86983 5.62395 10.0446 6.10415 10.0439 6.60008C10.0439 8.00008 7.94389 8.70008 7.94389 8.70008" stroke="black" stroke-opacity="0.6" stroke-linecap="round" stroke-linejoin="round"/>
<path d="M8 11.5H8.007" stroke="black" stroke-opacity="0.6" stroke-linecap="round" stroke-linejoin="round"/>
</svg>
