<svg width="20" height="20" viewBox="0 0 20 20" fill="none" xmlns="http://www.w3.org/2000/svg">
<g clip-path="url(#clip0_56_2192)">
<path opacity="0.94" fill-rule="evenodd" clip-rule="evenodd" d="M7.48022 -0.0195312C7.57135 -0.0195312 7.66252 -0.0195312 7.75365 -0.0195312C7.85158 0.293826 7.96877 0.599816 8.10522 0.898438C8.40471 0.911457 8.70416 0.92448 9.00365 0.9375C9.11611 1.00257 9.14865 1.10023 9.10131 1.23047C8.88998 1.39797 8.67514 1.56073 8.45678 1.71875C8.4258 1.76114 8.39975 1.80671 8.37865 1.85547C8.4776 2.12624 8.56873 2.39968 8.65209 2.67578C8.62373 2.7888 8.55209 2.85391 8.43725 2.87109C8.16451 2.70293 7.89108 2.53366 7.61694 2.36328C7.37819 2.51088 7.15033 2.67364 6.93334 2.85156C6.67944 2.91016 6.58178 2.8125 6.64037 2.55859C6.70408 2.32834 6.77572 2.10048 6.85522 1.875C6.83947 1.81747 6.81342 1.76539 6.77709 1.71875C6.56186 1.57859 6.35354 1.42885 6.15209 1.26953C6.07729 1.11412 6.11635 1.00344 6.26928 0.9375C6.55572 0.92448 6.84221 0.911457 7.12865 0.898438C7.24967 0.593945 7.36686 0.287957 7.48022 -0.0195312Z" fill="#3392FF"/>
<path opacity="0.94" fill-rule="evenodd" clip-rule="evenodd" d="M11.2304 -0.0195312C11.3085 -0.0195312 11.3866 -0.0195312 11.4647 -0.0195312C11.5736 0.248348 11.6712 0.521785 11.7577 0.800781C11.7902 0.833332 11.8228 0.865887 11.8554 0.898438C12.1548 0.911457 12.4543 0.92448 12.7538 0.9375C12.8933 1.04007 12.9063 1.15726 12.7929 1.28906C12.5605 1.42811 12.3456 1.59087 12.1483 1.77734C12.1223 1.84245 12.1223 1.90755 12.1483 1.97266C12.2279 2.19823 12.2995 2.42609 12.3632 2.65625C12.3593 2.78384 12.2941 2.85546 12.1679 2.87109C11.885 2.71873 11.6116 2.54946 11.3475 2.36328C11.1323 2.50345 10.924 2.65318 10.7225 2.8125C10.5263 2.9262 10.3961 2.88063 10.3319 2.67578C10.435 2.38067 10.5066 2.08119 10.5468 1.77734C10.3124 1.59505 10.078 1.41276 9.84363 1.23047C9.79398 1.08726 9.83957 0.989605 9.98035 0.9375C10.2668 0.92448 10.5533 0.911457 10.8397 0.898438C10.9729 0.593242 11.1031 0.287252 11.2304 -0.0195312Z" fill="#3392FF"/>
<path opacity="0.94" fill-rule="evenodd" clip-rule="evenodd" d="M14.8645 -0.0195312C14.9557 -0.0195312 15.0468 -0.0195312 15.138 -0.0195312C15.2359 0.293826 15.3531 0.599816 15.4895 0.898438C15.789 0.911457 16.0885 0.92448 16.388 0.9375C16.5004 1.00257 16.533 1.10023 16.4856 1.23047C16.2743 1.39797 16.0594 1.56073 15.8411 1.71875C15.8101 1.76114 15.7841 1.80671 15.763 1.85547C15.8619 2.12624 15.953 2.39968 16.0364 2.67578C16.008 2.7888 15.9364 2.85391 15.8216 2.87109C15.5488 2.70293 15.2754 2.53366 15.0012 2.36328C14.7625 2.51088 14.5346 2.67364 14.3177 2.85156C14.044 2.90327 13.9464 2.79259 14.0247 2.51953C14.0963 2.30469 14.1679 2.08984 14.2395 1.875C14.1897 1.78591 14.1246 1.70779 14.0442 1.64062C13.8694 1.52448 13.7002 1.40078 13.5364 1.26953C13.4956 1.18095 13.4891 1.08981 13.5169 0.996094C13.5586 0.969121 13.6041 0.94959 13.6536 0.9375C13.94 0.92448 14.2265 0.911457 14.513 0.898438C14.6341 0.593512 14.7513 0.287523 14.8645 -0.0195312Z" fill="#3392FF"/>
<path opacity="0.98" fill-rule="evenodd" clip-rule="evenodd" d="M16.7383 19.9805C15.2669 19.9805 13.7956 19.9805 12.3242 19.9805C12.3307 18.5221 12.3242 17.0638 12.3047 15.6055C12.2852 15.5339 12.2396 15.4883 12.168 15.4688C11.569 15.4427 10.97 15.4427 10.3711 15.4688C10.3386 15.5013 10.306 15.5339 10.2734 15.5664C10.2539 17.0377 10.2474 18.5091 10.2539 19.9805C7.89715 19.9805 5.54035 19.9805 3.18359 19.9805C2.88715 19.8593 2.71137 19.638 2.65625 19.3164C2.63021 17.9622 2.63021 16.6081 2.65625 15.2539C3.51421 14.2787 4.3866 13.3152 5.27344 12.3633C5.27379 9.5225 5.29984 6.68399 5.35156 3.84766C5.48141 3.54867 5.70926 3.38591 6.03516 3.35938C9.53777 3.33333 13.0404 3.33333 16.543 3.35938C16.886 3.39725 17.1269 3.57303 17.2656 3.88672C17.3305 9.01527 17.3435 14.1455 17.3047 19.2773C17.2536 19.6288 17.0648 19.8631 16.7383 19.9805ZM7.32422 6.34766C7.92332 6.34113 8.52227 6.34766 9.12109 6.36719C9.17699 6.38535 9.22254 6.41793 9.25781 6.46484C9.32106 7.06113 9.33406 7.66012 9.29688 8.26172C9.28621 8.33317 9.25363 8.39176 9.19922 8.4375C8.58988 8.50078 7.97789 8.51379 7.36328 8.47656C7.29352 8.4459 7.23492 8.40035 7.1875 8.33984C7.16145 7.72785 7.16145 7.1159 7.1875 6.50391C7.21445 6.43164 7.26 6.37953 7.32422 6.34766ZM10.4102 6.34766C11.0093 6.34113 11.6082 6.34766 12.207 6.36719C12.2428 6.3818 12.2754 6.40133 12.3047 6.42578C12.3491 6.75402 12.3687 7.08606 12.3633 7.42188C12.623 8.37957 12.2715 8.73766 11.3086 8.49609C11.0222 8.48957 10.7357 8.48309 10.4492 8.47656C10.3778 8.4659 10.3192 8.43332 10.2734 8.37891C10.2474 7.7409 10.2474 7.10285 10.2734 6.46484C10.3182 6.42047 10.3638 6.38141 10.4102 6.34766ZM13.457 6.34766C14.0561 6.34113 14.6551 6.34766 15.2539 6.36719C15.3098 6.38535 15.3554 6.41793 15.3906 6.46484C15.4545 7.0602 15.4675 7.65914 15.4297 8.26172C15.419 8.33317 15.3864 8.39176 15.332 8.4375C14.7227 8.50078 14.1107 8.51379 13.4961 8.47656C13.4402 8.4584 13.3946 8.42582 13.3594 8.37891C13.2955 7.7575 13.2825 7.1325 13.3203 6.50391C13.3741 6.45684 13.4196 6.40477 13.457 6.34766ZM7.28516 9.43359C7.91027 9.42707 8.53527 9.43359 9.16016 9.45313C9.22887 9.4925 9.27445 9.5511 9.29688 9.62891C9.32293 10.1888 9.32293 10.7487 9.29688 11.3086C9.28281 11.3836 9.25024 11.4488 9.19922 11.5039C8.56293 11.5489 7.92492 11.5554 7.28516 11.5234C7.26563 11.5039 7.24609 11.4844 7.22656 11.4648C7.16266 10.8434 7.14965 10.2184 7.1875 9.58984C7.21336 9.53188 7.24594 9.47981 7.28516 9.43359ZM10.3711 9.43359C10.9962 9.42707 11.6212 9.43359 12.2461 9.45313C12.2786 9.48567 12.3112 9.51824 12.3438 9.55078C12.3698 10.1758 12.3698 10.8008 12.3438 11.4258C12.3112 11.4583 12.2786 11.4909 12.2461 11.5234C11.6211 11.5495 10.9961 11.5495 10.3711 11.5234C10.3395 11.5114 10.3135 11.4919 10.293 11.4648C10.248 10.8286 10.2415 10.1905 10.2734 9.55078C10.3007 9.50426 10.3332 9.4652 10.3711 9.43359ZM13.418 9.43359C14.0431 9.42707 14.6681 9.43359 15.293 9.45313C15.3288 9.46774 15.3613 9.48727 15.3906 9.51172C15.4344 9.83442 15.4539 10.1599 15.4492 10.4883C15.4427 10.7747 15.4362 11.0612 15.4297 11.3477C15.4176 11.3971 15.3981 11.4427 15.3711 11.4844C15.0363 11.5289 14.6978 11.5484 14.3555 11.543C14.043 11.5364 13.7305 11.53 13.418 11.5234C13.3984 11.5039 13.3789 11.4844 13.3594 11.4648C13.2955 10.8434 13.2825 10.2184 13.3203 9.58984C13.3462 9.53188 13.3788 9.47981 13.418 9.43359ZM7.32422 12.5195C7.92332 12.513 8.52227 12.5195 9.12109 12.5391C9.17699 12.5572 9.22254 12.5898 9.25781 12.6367C9.32106 13.233 9.33406 13.832 9.29688 14.4336C9.28621 14.505 9.25363 14.5636 9.19922 14.6094C8.58988 14.6727 7.97789 14.6857 7.36328 14.6484C7.29352 14.6178 7.23492 14.5722 7.1875 14.5117C7.16145 13.8997 7.16145 13.2878 7.1875 12.6758C7.21445 12.6035 7.26 12.5514 7.32422 12.5195ZM10.4102 12.5195C11.0093 12.513 11.6082 12.5195 12.207 12.5391C12.2428 12.5537 12.2754 12.5732 12.3047 12.5977C12.3491 12.9259 12.3687 13.2579 12.3633 13.5938C12.623 14.5514 12.2715 14.9095 11.3086 14.668C11.0222 14.6614 10.7357 14.655 10.4492 14.6484C10.3778 14.6378 10.3192 14.6052 10.2734 14.5508C10.2474 13.9128 10.2474 13.2747 10.2734 12.6367C10.3182 12.5923 10.3638 12.5533 10.4102 12.5195ZM13.457 12.5195C14.0561 12.513 14.6551 12.5195 15.2539 12.5391C15.3098 12.5572 15.3554 12.5898 15.3906 12.6367C15.4545 13.2321 15.4675 13.831 15.4297 14.4336C15.419 14.505 15.3864 14.5636 15.332 14.6094C14.7237 14.6732 14.1117 14.6863 13.4961 14.6484C13.4402 14.6303 13.3946 14.5977 13.3594 14.5508C13.2955 13.9294 13.2825 13.3044 13.3203 12.6758C13.3741 12.6287 13.4196 12.5766 13.457 12.5195ZM7.28516 15.6055C7.91027 15.5989 8.53527 15.6055 9.16016 15.625C9.22887 15.6644 9.27445 15.723 9.29688 15.8008C9.32293 16.3607 9.32293 16.9206 9.29688 17.4805C9.28281 17.5555 9.25024 17.6206 9.19922 17.6758C8.56293 17.7207 7.92492 17.7273 7.28516 17.6953C7.26563 17.6758 7.24609 17.6563 7.22656 17.6367C7.16266 17.0153 7.14965 16.3903 7.1875 15.7617C7.21336 15.7038 7.24594 15.6517 7.28516 15.6055ZM13.418 15.6055C14.0431 15.5989 14.6681 15.6055 15.293 15.625C15.3288 15.6396 15.3613 15.6591 15.3906 15.6836C15.4344 16.0063 15.4539 16.3318 15.4492 16.6602C15.4427 16.9466 15.4362 17.2331 15.4297 17.5195C15.4176 17.569 15.3981 17.6146 15.3711 17.6563C15.0363 17.7007 14.6978 17.7203 14.3555 17.7148C14.043 17.7083 13.7305 17.7018 13.418 17.6953C13.3984 17.6758 13.3789 17.6563 13.3594 17.6367C13.2955 17.0153 13.2825 16.3903 13.3203 15.7617C13.3462 15.7038 13.3788 15.6517 13.418 15.6055Z" fill="#3392FF"/>
</g>
<defs>
<clipPath id="clip0_56_2192">
<rect width="20" height="20" fill="white"/>
</clipPath>
</defs>
</svg>
