<svg width="167" height="167" viewBox="0 0 167 167" fill="none" xmlns="http://www.w3.org/2000/svg">
<path fill-rule="evenodd" clip-rule="evenodd" d="M146.804 0.392205C145.834 0.6644 144.165 1.35437 143.094 1.92526C141.051 3.01503 137.422 6.65073 114.756 30.3215C109.501 35.8096 105.087 40.3404 104.947 40.3898C104.808 40.4392 93.372 36.7328 79.536 32.1533C65.699 27.5737 46.9057 21.3545 37.7722 18.3325L21.1659 12.8386L12.4657 21.5419C7.6804 26.3286 3.8446 30.3732 3.9414 30.5299C4.0382 30.6867 19.6556 40.3836 38.647 52.0788C57.6381 63.774 73.141 73.451 73.098 73.5835C73.013 73.8446 42.2088 106.03 39.5703 108.614L37.9632 110.189L26.7441 108.339L15.5254 106.49L7.5692 114.444C2.6094 119.403 -0.235495 122.475 0.0153049 122.603C0.236405 122.715 7.7118 125.352 16.6275 128.463L32.8382 134.119L38.5074 150.351C41.6257 159.278 44.2688 166.764 44.3813 166.985C44.5089 167.236 47.5807 164.389 52.5354 159.43L60.4847 151.473L58.6278 140.261L56.7708 129.049L58.0273 127.752C60.1864 125.524 93.13 93.9579 93.383 93.8745C93.515 93.831 103.182 109.336 114.864 128.329C126.547 147.323 136.24 162.946 136.404 163.047C136.72 163.242 153.962 146.188 153.962 145.681C153.962 145.519 147.774 126.694 140.211 103.848C132.648 81.0018 126.504 62.1857 126.557 62.0345C126.611 61.8831 131.069 57.5319 136.465 52.3651C161.251 28.6328 163.985 25.8814 165.207 23.4382C166.656 20.5386 167.17 18.0414 166.952 14.9451C166.508 8.62839 162.222 2.91917 156.363 0.838775C153.825 -0.0622168 149.193 -0.278795 146.804 0.392205Z" fill="#0073FF"/>
</svg>
