<svg width="18" height="18" viewBox="0 0 18 18" fill="none" xmlns="http://www.w3.org/2000/svg">
<path d="M8.52597 0.0210781C6.87714 0.175766 5.54121 0.780453 4.40214 1.87733C3.51269 2.73866 2.87988 3.81795 2.58457 4.99217C2.42285 5.63905 2.38066 6.05389 2.39824 6.80975C2.42988 8.00858 2.60917 8.65545 3.28769 9.99842C4.29667 12.0023 5.78378 14.2383 7.68222 16.6113C8.45917 17.5816 8.70527 17.8629 8.83886 17.9367C9.11308 18.0914 9.18339 18.0281 10.3049 16.6254C11.7076 14.8781 13.0225 12.9973 13.9787 11.373C14.4814 10.5187 15.1213 9.21444 15.2865 8.7117C15.515 8.00858 15.5818 7.61131 15.6029 6.80975C15.6135 6.26834 15.6064 6.02928 15.5572 5.71991C15.3393 4.26795 14.7451 3.05858 13.7502 2.03202C12.7377 0.98436 11.4721 0.323421 10.0201 0.0843601C9.71777 0.035141 8.78613 -0.0035305 8.52597 0.0210781ZM9.65449 3.25545C11.0889 3.55077 12.1611 4.6617 12.3932 6.08905C12.46 6.50038 12.46 6.7535 12.3932 7.16483C12.1225 8.84178 10.6951 10.0547 9.00058 10.0547C7.30605 10.0547 5.87871 8.84178 5.608 7.16483C5.54121 6.7535 5.54121 6.50038 5.608 6.08905C5.84003 4.66522 6.89824 3.56483 8.33613 3.25194C8.6455 3.18514 9.32753 3.18514 9.65449 3.25545Z" fill="#3392FF"/>
</svg>
