<svg width="18" height="14" viewBox="0 0 18 14" fill="none" xmlns="http://www.w3.org/2000/svg">
<path d="M15.3762 0.0181808C14.8705 0.0582762 14.2047 0.245387 13.8373 0.449204C13.7242 0.512689 12.9705 1.04729 12.157 1.6387L10.681 2.71459L7.82302 3.35945C6.25272 3.71363 4.91796 4.02102 4.85829 4.04441C4.55365 4.16804 4.53795 4.63582 4.83317 4.78283C4.89598 4.81624 5.36393 4.87639 6.12709 4.95658C6.78348 5.02674 7.32994 5.09023 7.3425 5.10359C7.35193 5.11362 6.84001 5.50455 6.19619 5.96898L5.03102 6.81432L4.8897 6.75084C4.81118 6.71409 4.28042 6.45013 3.70883 6.16612C2.61904 5.62149 2.24845 5.46779 1.88728 5.40765C1.42876 5.3308 1.1147 5.4845 1.02362 5.82865C0.976509 6.00239 1.00163 6.26636 1.08329 6.46015C1.14296 6.59714 3.3351 9.64438 3.52354 9.85154C3.61775 9.95512 3.6523 9.96848 3.78421 9.96848C3.92867 9.96848 3.97264 9.94509 4.39034 9.64438C4.77664 9.36705 5.06243 9.20667 6.40347 8.51503C7.26399 8.07064 7.97377 7.71312 7.98005 7.71981C7.98633 7.72649 7.88583 8.12744 7.75706 8.61527C7.6283 9.10309 7.52466 9.54414 7.52466 9.60094C7.52466 9.74462 7.63458 9.91502 7.76335 9.97182C7.90467 10.0353 8.07741 9.98853 8.19047 9.86156C8.23444 9.8081 8.6804 9.10309 9.17976 8.29451C10.0371 6.90788 10.1282 6.77423 10.6558 6.12268L11.2211 5.42436L13.1338 4.03773C14.1827 3.27592 15.4264 2.37712 15.8912 2.03965C16.3592 1.70218 16.7894 1.37808 16.846 1.32128C17.0124 1.15087 17.0815 0.980467 17.0627 0.790014C17.025 0.449204 16.8648 0.282142 16.4377 0.131784C16.2587 0.0683002 15.7342 -0.0118904 15.5803 0.00147438C15.5458 0.00481606 15.4547 0.0114985 15.3762 0.0181808Z" fill="#3392FF"/>
<path d="M1 13H17" stroke="#3392FF" stroke-width="1.5" stroke-linecap="round"/>
</svg>
