<svg width="124" height="167" viewBox="0 0 124 167" fill="none" xmlns="http://www.w3.org/2000/svg">
<path fill-rule="evenodd" clip-rule="evenodd" d="M49.784 0.712413C48.806 1.69996 48.806 1.7744 49.792 8.06535C51.613 19.6914 51.126 31.6442 48.668 35.6577C48.308 36.2466 47.482 36.9828 46.833 37.2936C45.192 38.0794 43.083 37.558 39.4896 35.4791C37.951 34.5885 36.3033 33.8602 35.8288 33.8602C34.6263 33.8602 32.7182 36.0073 29.2948 41.2122C24.6896 48.2138 21.4991 55.4727 20.0433 62.2625C19.7547 63.6092 19.437 66.6943 19.3374 69.1182C19.098 74.9466 19.8336 79.2556 21.9646 84.5035C22.3101 85.3546 19.6612 85.6141 17.4011 84.9511C15.1433 84.289 12.8642 82.103 10.8358 78.6549C9.35803 76.1428 8.79703 75.6475 7.42823 75.6475C5.80193 75.6475 5.17303 76.7927 3.92073 82.0351C0.946027 94.4874 0.00262683 101.669 2.68276e-05 111.885C-0.00187317 118.791 0.0958264 120.404 0.716026 123.696C3.90483 140.628 13.4831 153.292 28.4711 160.393C37.3499 164.6 46.723 166.613 59.022 166.954C81.855 167.587 99.052 161.713 110.692 149.304C117.285 142.275 121.235 133.974 123.293 122.821C124.417 116.728 124.175 103.486 122.752 93.2125C121.17 81.7942 117.129 67.0432 115.212 65.6884C113.374 64.3894 111.354 65.6424 110.965 68.3227C110.644 70.5295 109.792 72.3701 108.34 73.9917C107.231 75.2306 104.421 77.2074 104.19 76.9113C104.138 76.8447 104.23 75.1741 104.395 73.199C105.263 62.8113 102.621 49.5683 97.661 39.4466C93.985 31.9442 90.249 26.7681 83.965 20.4713C77.021 13.5134 69.92 8.53447 59.457 3.28788C52.35 -0.275465 51.094 -0.609764 49.784 0.712413ZM46.642 91.654C43.646 92.4134 40.849 94.7949 39.5618 97.6838C38.5485 99.9573 38.5485 103.571 39.5614 105.845C40.5126 107.981 42.8587 110.359 44.919 111.276C47.217 112.299 50.791 112.301 53.037 111.282C55.153 110.322 57.51 107.955 58.419 105.875C59.429 103.564 59.429 99.9648 58.419 97.6537C57.523 95.6045 55.154 93.2024 53.148 92.3105C51.376 91.5224 48.362 91.2182 46.642 91.654ZM81.183 91.938C79.634 92.9239 39.0535 134.167 38.8057 135.006C38.2868 136.766 40.1894 138.686 41.9328 138.162C42.9189 137.866 84.442 96.0316 84.93 94.8429C85.414 93.6644 84.861 92.2047 83.734 91.6867C82.646 91.1862 82.312 91.2192 81.183 91.938ZM46.38 97.2835C44.703 98.4235 43.817 99.9729 43.817 101.765C43.817 103.556 44.703 105.106 46.38 106.246C49.554 108.405 54.169 105.75 54.169 101.765C54.169 98.9364 51.796 96.5412 48.993 96.5412C47.946 96.5412 47.131 96.7726 46.38 97.2835ZM72.524 117.771C69.527 118.53 66.73 120.912 65.443 123.801C64.43 126.074 64.43 129.688 65.442 131.962C66.394 134.098 68.74 136.476 70.8 137.393C73.098 138.416 76.672 138.418 78.918 137.399C81.035 136.44 83.391 134.072 84.3 131.992C85.31 129.681 85.31 126.082 84.3 123.771C83.404 121.722 81.035 119.319 79.029 118.428C77.257 117.64 74.243 117.335 72.524 117.771ZM72.261 123.401C70.584 124.541 69.698 126.09 69.698 127.882C69.698 129.673 70.584 131.223 72.261 132.363C74.515 133.896 77.598 133.09 79.315 130.519C81.454 127.316 78.823 122.658 74.874 122.658C73.827 122.658 73.012 122.89 72.261 123.401Z" fill="#0073FF"/>
</svg>
