<svg width="25" height="24" viewBox="0 0 25 24" fill="none" xmlns="http://www.w3.org/2000/svg">
<path d="M12.2599 10.87C12.1599 10.86 12.0399 10.86 11.9299 10.87C9.54991 10.79 7.65991 8.84 7.65991 6.44C7.65991 3.99 9.63991 2 12.0999 2C14.5499 2 16.5399 3.99 16.5399 6.44C16.5299 8.84 14.6399 10.79 12.2599 10.87Z" stroke="#9CA3AF" stroke-width="1.5" stroke-linecap="round" stroke-linejoin="round"/>
<path d="M6.91485 13.3725C4.49485 14.9925 4.49485 17.6325 6.91485 19.2425C9.66485 21.0825 14.1749 21.0825 16.9249 19.2425C19.3449 17.6225 19.3449 14.9825 16.9249 13.3725C14.1849 11.5425 9.67485 11.5425 6.91485 13.3725Z" stroke="#9CA3AF" stroke-width="1.5" stroke-linecap="round" stroke-linejoin="round"/>
</svg>
