<svg width="140" height="167" viewBox="0 0 140 167" fill="none" xmlns="http://www.w3.org/2000/svg">
<path fill-rule="evenodd" clip-rule="evenodd" d="M67.329 0.469313C65.048 1.36326 64.431 1.98475 59.985 7.86497C57.495 11.1585 54.803 14.3076 54.002 14.8635C50.5195 17.2805 47.8462 17.4688 37.2037 16.0454C31.1545 15.2364 29.816 15.4615 27.3334 17.7053C24.5137 20.2537 24.2901 21.8287 25.517 30.4836C27.1669 42.1193 26.5571 43.5961 17.1441 50.7614C10.4053 55.8909 9.53514 56.9652 9.33764 60.3978C9.12314 64.1328 9.98233 65.3462 16.2539 70.1596C22.734 75.133 23.8289 76.1831 25.0468 78.5906C26.4171 81.2994 26.5241 84.0831 25.5265 91.0824C25.0596 94.3573 24.7532 97.9528 24.8459 99.0723C25.1519 102.767 28.05 105.691 31.6952 105.983C32.7746 106.07 36.2034 105.785 39.3159 105.349C51.368 103.664 52.664 104.193 59.986 113.789C65.169 120.58 66.246 121.421 69.76 121.421C73.731 121.421 74.455 120.877 79.803 113.864C87.148 104.232 88.552 103.645 100.255 105.31C103.162 105.724 106.356 106.065 107.353 106.068C111.424 106.081 115.188 102.368 115.188 98.3382C115.188 97.6133 114.84 94.6666 114.415 91.7892C113.123 83.0406 113.418 80.07 115.926 76.5408C116.348 75.9478 119.432 73.3644 122.78 70.7997C129.735 65.4724 130.47 64.5174 130.486 60.7889C130.501 57.1733 129.645 56.0633 122.91 50.9653C116.85 46.378 115.717 45.2199 114.424 42.2933C113.407 39.9892 113.404 37.0228 114.411 29.9144C114.838 26.8979 115.184 23.8284 115.18 23.0932C115.161 20.0696 112.551 16.7499 109.465 15.8238C108.148 15.4285 107.02 15.4672 102.554 16.0606C88.304 17.9539 87.201 17.5571 79.92 7.92485C76.196 2.99693 75.168 1.88319 73.537 1.00894C71.433 -0.119202 69.303 -0.30451 67.329 0.469313ZM68.353 23.1777C68.138 23.4384 65.891 29.1936 63.361 35.9674C60.831 42.7412 58.621 48.4274 58.45 48.6032C58.279 48.7791 52.291 49.1728 45.1419 49.4779C37.9929 49.7829 31.7557 50.1918 31.2817 50.3866C30.2163 50.8239 29.6647 52.1912 30.1433 53.2098C30.3392 53.6266 35.0987 57.6182 40.7199 62.08C46.3416 66.5418 51.026 70.4158 51.131 70.689C51.236 70.9619 49.7727 76.7936 47.8802 83.6477C45.9882 90.5022 44.4397 96.5409 44.4397 97.0669C44.4397 98.2246 45.2505 98.9684 46.5122 98.9684C47.0941 98.9684 51.61 96.2055 58.462 91.6577C64.52 87.637 69.674 84.3503 69.916 84.3541C70.158 84.3583 75.444 87.7158 81.663 91.8157C93.351 99.5198 93.824 99.7457 95.042 98.1946C95.302 97.863 95.513 97.3261 95.51 97.0013C95.508 96.6761 93.899 90.6125 91.935 83.5261L88.363 70.6417L89.196 69.999C89.654 69.6454 94.455 65.8085 99.865 61.4725C108.668 54.4179 109.714 53.4618 109.819 52.3806C110.029 50.2089 109.644 50.1346 94.805 49.4763C87.444 49.1501 81.38 48.8333 81.33 48.7726C81.28 48.712 79.235 43.2907 76.787 36.7253C74.338 30.1599 72.098 24.3195 71.808 23.7462C71.392 22.9216 71.017 22.704 70.014 22.704C69.316 22.704 68.569 22.9174 68.353 23.1777ZM69.454 32.2726C65.006 44.282 62.033 51.9964 61.65 52.5209C61.228 53.0995 59.909 53.2428 51.196 53.6577C45.7109 53.9188 40.5504 54.1803 39.7276 54.2394L38.2313 54.3467L46.9159 61.2838C51.692 65.0991 55.75 68.6052 55.932 69.0751C56.179 69.7106 55.518 72.6247 53.351 80.4581C51.749 86.2489 50.5305 91.0794 50.6432 91.1923C50.756 91.3052 54.989 88.6461 60.051 85.2829C65.113 81.9197 69.561 79.1681 69.936 79.1681C70.31 79.1681 74.856 81.9758 80.039 85.4072C85.221 88.8386 89.46 91.5243 89.458 91.3757C89.456 91.2268 88.179 86.5069 86.62 80.887C85.062 75.2668 83.786 70.2089 83.786 69.6473C83.786 68.7685 85.03 67.6305 92.673 61.5138C97.561 57.6022 101.519 54.3622 101.47 54.3137C101.42 54.2652 96.441 54.02 90.407 53.7684C82.94 53.4573 79.19 53.1583 78.666 52.832C78.132 52.4989 76.704 49.1592 73.987 41.8863C71.836 36.13 70.007 31.42 69.923 31.42C69.838 31.42 69.627 31.8038 69.454 32.2726ZM13.9839 122.846C9.19803 132.06 3.96834 142.12 2.36194 145.202C0.554735 148.669 -0.307567 150.67 0.0991332 150.452C0.460833 150.258 6.52853 146.418 13.5837 141.919C22.4503 136.263 26.7383 133.737 27.4715 133.737C29.4899 133.737 29.5478 134.104 30.236 151.163C30.5848 159.809 30.9226 166.936 30.9866 167C31.1273 167.141 56.925 117.683 56.925 117.272C56.925 117.113 55.808 115.551 54.444 113.801C50.4593 108.69 49.47 108.409 40.0991 109.729C36.1474 110.285 32.4553 110.608 31.321 110.496C28.8081 110.248 26.3932 109.169 24.4849 107.443C23.653 106.69 22.9077 106.078 22.829 106.083C22.7499 106.089 18.7698 113.632 13.9839 122.846ZM115.439 107.406C113.488 109.11 110.917 110.271 108.592 110.499C107.529 110.603 103.611 110.266 99.793 109.742C92.24 108.705 90.618 108.8 88.519 110.403C87.233 111.386 83.03 116.728 83.03 117.38C83.03 117.815 108.225 166.288 108.723 166.811C108.877 166.973 109.208 161.772 109.459 155.253C110.31 133.116 110.223 133.737 112.472 133.737C113.144 133.737 117.983 136.606 126.864 142.268C134.221 146.959 140.132 150.511 139.998 150.162C139.628 149.196 117.425 106.679 117.139 106.39C117.002 106.251 116.237 106.708 115.439 107.406Z" fill="#0073FF"/>
</svg>
