<svg width="150" height="167" viewBox="0 0 150 167" fill="none" xmlns="http://www.w3.org/2000/svg">
<path fill-rule="evenodd" clip-rule="evenodd" d="M39.8599 9.43325C21.164 14.6121 5.42182 19.0785 4.87732 19.3587C3.59822 20.0164 2.60022 21.2938 2.20562 22.778C1.66872 24.7969 0.58412 37.9052 0.20462 46.9561C-0.86778 72.5499 2.30402 96.2423 9.03932 112.944C11.2568 118.442 13.9426 123.044 18.1604 128.573C31.3713 145.891 48.9452 158.543 69.528 165.555C71.861 166.35 74.323 167 75 167C75.677 167 78.139 166.35 80.472 165.555C101.055 158.543 118.629 145.891 131.84 128.573C136.057 123.044 138.743 118.442 140.961 112.944C147.696 96.2423 150.868 72.5499 149.795 46.9561C149.416 37.9052 148.331 24.7969 147.794 22.778C147.4 21.2941 146.402 20.0167 145.123 19.3587C143.662 18.6075 76.061 -0.020534 74.869 1.69917e-05C74.31 0.00947697 58.556 4.25473 39.8599 9.43325ZM107.962 47.2673C107.42 47.3926 106.683 47.6584 106.322 47.8581C105.961 48.0577 97.401 56.4503 87.3 66.5086C77.199 76.5665 68.79 84.796 68.612 84.796C68.435 84.796 63.786 80.3296 58.28 74.8705C47.4638 64.1459 47.5195 64.1873 44.5802 64.7226C43.5694 64.9066 42.61 65.6829 39.1932 69.081C35.7314 72.5241 34.9977 73.4254 34.8052 74.4703C34.2722 77.3641 34.1581 77.2251 50.347 93.3925C58.859 101.893 65.78 108.547 66.38 108.806C67.633 109.347 69.354 109.393 70.633 108.92C71.676 108.535 118.728 61.9652 119.462 60.5915C120.262 59.0952 120.064 56.7475 118.999 55.0936C117.894 53.3778 112.394 48.0407 111.328 47.6499C109.969 47.1521 108.956 47.0367 107.962 47.2673Z" fill="#0073FF"/>
</svg>
